<?xml version="1.0" encoding="UTF-8" standalone="no"?><!DOCTYPE svg PUBLIC "-//W3C//DTD SVG 1.1//EN" "http://www.w3.org/Graphics/SVG/1.1/DTD/svg11.dtd"><svg width="100%" height="100%" viewBox="0 0 528 207" version="1.1" xmlns="http://www.w3.org/2000/svg" xmlns:xlink="http://www.w3.org/1999/xlink" xml:space="preserve" xmlns:serif="http://www.serif.com/" style="fill-rule:evenodd;clip-rule:evenodd;stroke-linejoin:round;stroke-miterlimit:2;"><g id="Vrstva-1" serif:id="Vrstva 1"><g><g><g><path d="M80.724,115.39l8.057,-25.422l7.745,-28.259l0.975,0l7.741,28.259l7.906,25.422l-32.424,-0Zm52.081,63.972l53.867,-0l-56.357,-150.994l-65.87,-0l-57.107,150.994l53.884,-0l9.508,-31.373l52.489,0l9.586,31.373Z" style="fill:#d3b67f;fill-rule:nonzero;"/><path d="M502.101,30.92c0,-0 -15.352,-6.904 -46.866,-6.904c-31.514,0 -95.846,13.082 -95.846,77.699c0,62.378 58.142,79.612 100.629,79.612c20.996,0 36.482,-4.727 44.96,-7.983l-7.901,-30.424c-6.542,2.786 -18.051,5.365 -33.148,5.365c-17.912,0 -52.64,-5.265 -52.64,-46.57c0,-41.305 35.387,-44.68 48.023,-44.68c12.631,-0 25.267,2.216 33.87,6.568l8.919,-32.683Z" style="fill:#d3b67f;fill-rule:nonzero;"/><path d="M331.815,32.175c0,-0 -19.047,-8.159 -52.705,-8.159c-30.973,-0 -94.625,12.057 -94.625,78.181c0,64.263 58.684,78.839 95.621,78.839c26.715,0 45.944,-3.464 57.687,-7.493l0,-89.023l-40.164,9.281l-2.725,23.893l-0,30.447c-4.124,0.941 -9.604,1.34 -17.219,1.34c-11.458,-0 -43.652,-5.226 -43.652,-47.284c-0,-40.304 31.943,-44.956 48.607,-44.956c14.126,0 30.336,2.93 40.208,7.534l8.967,-32.6Z" style="fill:#d3b67f;fill-rule:nonzero;"/></g><path d="M262.381,117.693l32.35,-0l42.885,-33.174l-75.235,-0l-0,33.174Z" style="fill:#b89758;fill-rule:nonzero;"/></g></g></g></svg>