<?xml version="1.0" encoding="UTF-8" standalone="no"?><!DOCTYPE svg PUBLIC "-//W3C//DTD SVG 1.1//EN" "http://www.w3.org/Graphics/SVG/1.1/DTD/svg11.dtd"><svg width="100%" height="100%" viewBox="0 0 2481 3508" version="1.1" xmlns="http://www.w3.org/2000/svg" xmlns:xlink="http://www.w3.org/1999/xlink" xml:space="preserve" xmlns:serif="http://www.serif.com/" style="fill-rule:evenodd;clip-rule:evenodd;stroke-miterlimit:22.9256;"><g id="Vrstva-1" serif:id="Vrstva 1"><path d="M1275.02,2299.13c-0,7.42 -0.175,10.352 -0.864,12.423c-0.69,2.59 -3.105,5.177 -6.211,6.556c-3.969,1.726 -4.486,2.245 -4.486,3.969c-0,2.417 1.38,3.451 4.658,3.451l36.752,0c3.277,0 4.658,-1.034 4.658,-3.451c-0,-1.552 -0.689,-2.243 -3.279,-3.45c-7.591,-3.452 -8.282,-5.005 -8.282,-19.498l0,-45.204c0,-11.562 1.553,-14.149 10.353,-16.737c11.388,-3.452 15.011,-5.176 19.843,-10.353c4.658,-4.658 8.281,-11.042 8.281,-14.321c0,-2.588 -1.553,-4.485 -3.795,-4.485c-1.554,-0 -2.761,0.689 -5.523,3.106c-5.003,4.486 -10.006,6.384 -16.736,6.384c-3.622,-0 -7.935,-0.691 -19.496,-3.452c-11.043,-2.587 -14.839,-3.104 -20.361,-3.104c-10.697,-0 -15.528,2.415 -17.081,8.627c-1.379,7.073 -3.277,11.903 -8.282,22.601c-0.862,1.726 -1.207,2.761 -1.207,3.451c0,1.899 1.552,3.624 3.278,3.624c1.035,0 1.897,-0.517 4.313,-2.587c9.835,-8.455 15.011,-10.872 23.292,-10.872c3.624,0 7.938,0.347 12.596,1.208c-12.249,5.695 -19.841,12.596 -19.841,17.943c-0,1.554 0.517,2.418 2.242,3.28c4.486,2.07 5.178,3.624 5.178,12.251l-0,28.64Zm74.191,-0c0,7.42 -0.172,10.352 -0.861,12.423c-0.692,2.762 -3.107,5.004 -6.212,6.556c-3.969,1.726 -4.486,2.245 -4.486,3.969c0,2.417 1.38,3.451 4.658,3.451l36.751,0c3.278,0 4.658,-1.034 4.658,-3.451c-0,-1.552 -0.69,-2.243 -3.278,-3.45c-7.592,-3.452 -8.282,-5.005 -8.282,-19.498l0,-39.683c0,-9.491 0.518,-14.321 2.071,-17.945c3.105,-7.937 10.87,-13.113 19.669,-13.113c11.044,0 19.498,7.938 19.498,18.291c0,9.488 -7.248,16.734 -16.391,16.734c-7.076,0 -12.251,-4.313 -12.251,-10.351c-0,-4.488 3.451,-8.11 7.592,-8.11c2.243,0 4.313,1.552 4.313,3.45c0,0.864 -0.346,1.553 -1.381,2.416c-1.035,0.691 -1.38,1.208 -1.38,2.07c0,1.726 1.38,2.762 3.279,2.762c3.968,0 6.901,-3.279 6.901,-7.592c-0,-5.695 -5.348,-10.525 -12.078,-10.525c-8.8,-0 -16.218,8.454 -16.218,18.806c0,7.248 2.76,13.113 11.732,24.847c8.799,11.387 16.737,26.572 16.737,32.264c-0,2.243 -1.208,3.796 -4.314,5.177c-2.07,0.862 -2.76,1.726 -2.76,3.277c-0,2.59 1.381,3.624 5.175,3.624l34.682,0c5.692,0 7.246,-0.689 7.246,-3.451c-0,-1.898 -0.863,-2.76 -3.797,-3.969c-5.347,-1.896 -9.316,-5.865 -12.249,-12.076l-5.694,-12.251c-1.036,-2.243 -1.553,-3.968 -1.553,-5.177c-0,-1.034 0.172,-1.552 0.863,-3.45c0.518,-1.725 0.69,-2.415 0.69,-3.106c0,-1.724 -1.725,-3.278 -3.624,-3.278c-0.344,0 -0.862,0 -1.379,0.173c-1.725,0.172 -3.106,0.344 -4.315,0.344c-6.037,0 -10.179,-1.381 -15.528,-5.175c2.76,0.172 2.933,0.172 3.968,0.172c18.118,0 31.231,-12.595 31.231,-29.676c-0,-21.224 -18.807,-36.579 -44.86,-36.579c-17.256,-0 -32.266,6.211 -43.136,17.945c-4.141,4.313 -6.039,7.246 -6.039,9.316c-0,2.243 1.036,3.279 3.968,4.141c4.659,1.381 6.384,4.313 6.384,11.905l0,47.793Zm103.696,-20.703c0,14.838 0.69,20.703 3.452,26.914c6.211,14.149 20.531,23.121 37.267,23.121c12.596,-0 24.156,-5.003 31.922,-13.975c4.657,-5.522 8.626,-13.976 8.626,-18.807c0,-1.553 -0.345,-2.242 -2.07,-3.451c-3.624,-2.933 -4.142,-4.314 -4.142,-14.149l0,-30.021c0,-16.565 2.416,-22.257 12.077,-29.677c2.59,-2.071 3.452,-3.105 3.452,-4.658c-0,-1.554 -1.726,-3.279 -3.278,-3.279c-0.691,-0 -1.898,0.345 -3.278,0.863c-4.831,2.416 -9.836,3.45 -15.529,3.45c-5.005,0 -8.454,-0.69 -14.148,-2.588c-3.279,-1.206 -3.624,-1.206 -4.314,-1.206c-1.553,-0 -3.106,1.551 -3.106,3.104c-0,1.899 0.863,2.761 4.832,5.523c9.144,6.211 11.559,12.249 11.559,29.504l0,28.985c0,6.731 -0.345,11.388 -1.381,15.012c-2.242,8.283 -10.35,14.32 -19.324,14.32c-9.144,0 -16.909,-6.212 -18.634,-15.011c-0.69,-3.449 -1.035,-7.59 -1.035,-14.321l0,-31.228c0,-20.877 0.863,-23.812 7.419,-28.125c2.762,-1.898 3.968,-3.278 3.968,-4.831c0,-1.898 -1.724,-3.451 -3.622,-3.451c-0.691,-0 -1.553,0.172 -2.415,0.691c-6.558,2.932 -10.871,3.969 -17.083,3.969c-5.348,-0 -10.179,-1.037 -16.563,-3.279c-2.416,-0.862 -2.762,-1.036 -3.451,-1.036c-1.725,-0 -3.106,1.553 -3.106,3.106c-0,1.898 0.691,2.588 3.623,4.831c7.593,5.349 8.282,7.42 8.282,28.125l0,31.575Zm130.785,-13.115l0,-18.46c0,-20.877 0.862,-23.812 7.418,-28.125c2.762,-1.898 3.969,-3.278 3.969,-4.831c-0,-1.898 -1.724,-3.451 -3.622,-3.451c-0.691,-0 -1.553,0.172 -2.415,0.691c-6.559,2.932 -10.872,3.969 -17.083,3.969c-5.348,-0 -10.006,-0.864 -16.563,-3.279c-2.417,-0.862 -2.761,-1.036 -3.451,-1.036c-1.726,-0 -3.107,1.553 -3.107,3.106c0,1.898 0.692,2.588 3.624,4.831c7.593,5.349 8.282,7.42 8.282,28.125l0,52.278c0,7.42 -0.172,10.352 -0.861,12.423c-0.692,2.762 -3.107,5.004 -6.212,6.556c-3.969,1.726 -4.486,2.245 -4.486,3.969c-0,2.417 1.379,3.451 4.658,3.451l36.75,0c3.279,0 4.658,-1.034 4.658,-3.451c0,-1.552 -0.689,-2.243 -3.277,-3.45c-7.592,-3.452 -8.282,-5.005 -8.282,-19.498l0,-23.465c3.624,-1.38 5.867,-1.899 7.074,-1.899c2.243,0 3.451,1.209 5.177,4.661c1.553,3.449 2.588,4.313 4.485,4.313c3.106,-0 4.142,-1.381 5.176,-6.212c1.381,-7.075 2.934,-8.799 11.216,-12.078l0,34.68c0,7.42 -0.172,10.352 -0.863,12.423c-0.69,2.762 -3.105,5.004 -6.212,6.556c-3.968,1.726 -4.486,2.245 -4.486,3.969c0,2.417 1.381,3.451 4.658,3.451l36.753,0c3.276,0 4.657,-1.034 4.657,-3.451c0,-1.552 -0.689,-2.243 -3.277,-3.45c-7.592,-3.452 -8.282,-5.005 -8.282,-19.498l0,-52.278c0,-20.877 0.862,-23.812 7.418,-28.125c2.76,-1.898 3.969,-3.278 3.969,-4.831c0,-1.898 -1.726,-3.451 -3.624,-3.451c-0.689,-0 -1.551,0.172 -2.415,0.691c-6.556,2.932 -10.87,3.969 -17.081,3.969c-5.35,-0 -10.18,-1.037 -16.564,-3.279c-2.416,-0.862 -2.76,-1.036 -3.45,-1.036c-1.726,-0 -3.107,1.553 -3.107,3.106c0,1.898 0.69,2.588 3.624,4.831c7.591,5.349 8.282,7.42 8.282,28.125l0,7.418l-33.128,11.042Zm149.075,60.217c4.141,0 5.694,0.173 8.282,1.035c1.381,0.346 1.898,0.519 2.587,0.519c2.762,-0 4.833,-2.071 4.833,-4.659c-0,-1.381 -0.174,-1.725 -1.899,-3.968c-3.451,-5.005 -4.659,-8.11 -4.659,-12.942l-0,-2.416c0.346,-5.865 0.346,-5.865 0.346,-7.763c0,-7.764 -1.898,-14.148 -5.694,-19.326c-2.76,-3.622 -6.039,-6.037 -8.627,-6.037c-2.071,0 -3.796,1.551 -3.796,3.622c-0,1.209 0.172,1.899 1.381,4.313c1.898,4.314 2.933,8.283 2.933,12.251c-0,11.734 -7.938,20.705 -18.291,20.705c-6.9,0 -13.112,-3.796 -15.527,-9.663c-1.554,-3.794 -2.07,-6.901 -2.07,-14.319l-0,-41.238c-0,-20.188 0.689,-22.775 7.764,-26.916c4.658,-2.588 5.003,-3.105 5.003,-4.831c-0,-1.898 -1.726,-3.451 -3.624,-3.451c-0.689,-0 -1.726,0.172 -2.587,0.519c-9.317,3.449 -12.251,4.141 -18.463,4.141c-5.52,-0 -9.661,-0.864 -16.39,-3.279c-2.416,-0.862 -2.761,-1.036 -3.451,-1.036c-1.726,-0 -3.107,1.553 -3.107,3.106c0,1.898 0.691,2.588 3.624,4.831c7.593,5.349 8.283,7.42 8.283,28.125l-0,52.278c-0,7.42 -0.173,10.352 -0.863,12.423c-0.691,2.762 -3.107,5.004 -6.211,6.556c-3.969,1.726 -4.486,2.245 -4.486,3.969c-0,2.417 1.379,3.451 4.658,3.451l70.051,0Zm104.56,-19.151c0.862,3.104 1.206,5.003 1.206,6.556c0,2.76 -0.862,3.968 -4.313,5.694c-2.243,1.207 -2.933,2.071 -2.933,3.796c0,2.243 1.381,3.105 5.003,3.105l32.094,0c5.003,0 6.729,-1.034 6.729,-3.796c-0,-1.898 -0.519,-2.587 -3.797,-4.314c-5.694,-2.76 -8.454,-6.556 -11.041,-15.355l-19.152,-64.53c-0.692,-2.76 -1.209,-5.348 -1.209,-7.074c0,-4.313 1.898,-7.592 6.039,-10.869c2.415,-1.899 3.105,-3.107 3.105,-4.661c0,-2.415 -1.724,-3.966 -4.485,-3.966c-1.38,-0 -2.589,0.344 -5.349,1.206c-6.73,2.243 -11.216,3.279 -15.185,3.279c-4.141,0 -8.798,-1.036 -15.872,-3.279c-2.415,-0.862 -3.796,-1.206 -4.831,-1.206c-2.417,-0 -4.659,2.07 -4.659,4.313c-0,1.724 0.518,2.415 3.278,5.003c4.831,4.314 6.384,7.074 6.384,11.387c0,2.589 -0.517,5.694 -1.898,10.352l-5.003,17.082c-4.313,-2.761 -8.454,-4.142 -12.767,-4.142c-9.146,0 -16.392,6.904 -16.392,15.358c-0,6.384 4.141,11.042 9.661,11.042c2.762,0 4.66,-1.209 4.66,-2.932c-0,-0.347 -0,-0.52 -0.172,-0.864c-0.519,-1.726 -0.692,-2.416 -0.692,-3.278c-0,-2.762 2.415,-4.832 5.695,-4.832c1.897,0 3.796,0.519 6.038,1.726c-3.451,9.146 -5.004,12.768 -7.592,17.945c-3.796,7.936 -9.661,13.112 -14.838,13.112c-2.76,0 -4.831,-1.381 -5.694,-4.313c-1.035,-2.76 -1.552,-3.106 -4.314,-3.106c-8.108,-0 -14.666,7.247 -14.666,16.391c0,9.663 7.593,17.254 17.6,17.254c12.941,-0 22.948,-8.627 31.575,-27.087c3.45,-7.248 5.694,-13.287 7.937,-20.878c3.622,5.175 6.212,11.387 7.936,18.288c0.863,2.934 2.242,4.141 4.832,4.141c2.415,0 3.45,-0.862 4.658,-3.622c4.141,-8.801 4.659,-9.49 6.729,-12.595l5.695,19.669Zm-18.635,-64.359l9.489,32.611c-3.45,5.003 -5.003,7.763 -7.074,12.079c-2.76,-7.593 -5.866,-13.459 -9.663,-18.29l7.248,-26.4Zm7.246,-62.458c-3.622,0 -4.313,0.518 -5.003,3.622l-2.76,13.804c-0.347,2.071 -0.347,2.243 -0.347,2.588c0,1.553 0.864,2.243 2.589,2.243c1.38,-0 2.071,-0.345 3.45,-2.071l12.423,-15.183c1.037,-1.208 1.381,-2.07 1.381,-2.932c0,-1.553 -1.036,-2.071 -3.968,-2.071l-7.765,0Zm62.804,119.569c0,7.42 -0.172,10.352 -0.862,12.423c-0.691,2.762 -3.106,5.004 -6.211,6.556c-3.969,1.726 -4.486,2.245 -4.486,3.969c0,2.417 1.379,3.451 4.659,3.451l36.75,0c3.279,0 4.658,-1.034 4.658,-3.451c-0,-1.552 -0.69,-2.243 -3.277,-3.45c-7.593,-3.452 -8.283,-5.005 -8.283,-19.498l0,-39.683c0,-9.491 0.517,-14.321 2.071,-17.945c3.105,-7.937 10.87,-13.113 19.669,-13.113c11.043,0 19.498,7.938 19.498,18.291c0,9.488 -7.247,16.734 -16.392,16.734c-7.075,0 -12.25,-4.313 -12.25,-10.351c-0,-4.488 3.452,-8.11 7.592,-8.11c2.243,0 4.314,1.552 4.314,3.45c-0,0.864 -0.347,1.553 -1.381,2.416c-1.037,0.691 -1.381,1.208 -1.381,2.07c-0,1.726 1.381,2.762 3.279,2.762c3.969,0 6.901,-3.279 6.901,-7.592c-0,-5.695 -5.348,-10.525 -12.078,-10.525c-8.799,-0 -16.218,8.454 -16.218,18.806c0,7.248 2.76,13.113 11.732,24.847c8.799,11.387 16.736,26.572 16.736,32.264c0,2.243 -1.206,3.796 -4.313,5.177c-2.071,0.862 -2.76,1.726 -2.76,3.277c0,2.59 1.381,3.624 5.175,3.624l34.682,0c5.692,0 7.246,-0.689 7.246,-3.451c-0,-1.898 -0.862,-2.76 -3.797,-3.969c-5.348,-1.896 -9.316,-5.865 -12.248,-12.076l-5.695,-12.251c-1.036,-2.243 -1.553,-3.968 -1.553,-5.177c-0,-1.034 0.172,-1.552 0.864,-3.45c0.517,-1.725 0.689,-2.415 0.689,-3.106c-0,-1.724 -1.726,-3.278 -3.624,-3.278c-0.345,0 -0.862,0 -1.379,0.173c-1.726,0.172 -3.107,0.344 -4.315,0.344c-6.038,0 -10.178,-1.381 -15.528,-5.175c2.76,0.172 2.932,0.172 3.969,0.172c18.117,0 31.229,-12.595 31.229,-29.676c0,-21.224 -18.806,-36.579 -44.859,-36.579c-17.256,-0 -32.266,6.211 -43.136,17.945c-4.141,4.313 -6.039,7.246 -6.039,9.316c-0,2.243 1.036,3.279 3.969,4.141c4.658,1.381 6.383,4.313 6.383,11.905l0,47.793Zm39.857,-109.735l-17.253,-6.039c-2.243,-0.862 -2.243,-0.862 -2.762,-0.862c-1.38,-0 -2.243,0.862 -2.243,2.07c-0,0.862 0.863,1.899 2.762,3.452l15.011,11.214c2.587,1.898 3.624,2.416 5.175,2.416c1.381,-0 2.762,-0.69 4.832,-2.416l13.63,-11.214c2.415,-1.899 2.933,-2.59 2.933,-3.624c-0,-1.036 -0.862,-1.898 -1.897,-1.898c-0.691,-0 -1.036,-0 -2.934,0.862l-17.254,6.039Zm101.453,18.635c-21.222,-0 -37.614,14.493 -37.614,33.472c0,7.593 3.107,15.183 8.11,20.016c5.175,4.83 9.316,6.901 21.739,10.525c8.973,2.415 15.011,4.658 18.808,6.556c7.247,3.969 10.697,9.144 10.697,16.218c-0,11.561 -10.353,20.705 -23.466,20.705c-11.559,-0 -21.049,-6.729 -21.049,-14.839c-0,-5.003 3.451,-8.454 8.281,-8.454c2.589,-0 5.178,1.036 8.627,3.796c1.554,1.208 2.243,1.553 3.107,1.553c1.379,0 2.933,-1.726 2.933,-3.451c-0,-2.76 -2.416,-7.074 -5.522,-10.18c-4.831,-4.659 -11.559,-7.419 -17.943,-7.419c-12.251,0 -21.74,9.317 -21.74,21.395c-0,17.599 19.152,30.539 45.377,30.539c26.917,-0 45.896,-15.356 45.896,-36.751c-0,-11.042 -4.486,-20.36 -13.285,-27.088c-5.522,-4.314 -9.491,-6.212 -21.222,-9.836c-19.671,-6.037 -23.639,-8.454 -23.639,-15.183c-0,-6.211 5.004,-10.869 11.733,-10.869c6.729,-0 11.906,4.14 15.355,12.423c1.036,2.76 2.243,3.795 4.314,3.795c2.243,0 3.624,-1.208 5.177,-4.14c3.105,-6.384 6.211,-10.353 12.251,-15.184c3.794,-2.934 4.83,-4.315 4.83,-6.385c-0,-2.243 -1.898,-4.139 -4.141,-4.139c-0.689,-0 -1.036,-0 -2.588,0.344c-1.381,0.173 -2.416,0.345 -3.451,0.345c-2.76,0 -4.658,-0.517 -11.042,-2.934c-10.87,-3.967 -14.149,-4.83 -20.533,-4.83Zm75.055,91.1c0,7.42 -0.173,10.352 -0.863,12.423c-0.69,2.59 -3.105,5.177 -6.212,6.556c-3.968,1.726 -4.485,2.245 -4.485,3.969c-0,2.417 1.381,3.451 4.658,3.451l36.752,0c3.277,0 4.658,-1.034 4.658,-3.451c0,-1.552 -0.69,-2.243 -3.279,-3.45c-7.591,-3.452 -8.282,-5.005 -8.282,-19.498l-0,-45.204c-0,-11.562 1.553,-14.149 10.352,-16.737c11.389,-3.452 15.011,-5.176 19.843,-10.353c4.659,-4.658 8.283,-11.042 8.283,-14.321c-0,-2.588 -1.554,-4.485 -3.797,-4.485c-1.553,-0 -2.76,0.689 -5.521,3.106c-5.003,4.486 -10.006,6.384 -16.737,6.384c-3.622,-0 -7.936,-0.691 -19.497,-3.452c-11.042,-2.587 -14.838,-3.104 -20.36,-3.104c-10.697,-0 -15.528,2.415 -17.081,8.627c-1.38,7.073 -3.277,11.903 -8.282,22.601c-0.862,1.726 -1.207,2.761 -1.207,3.451c-0,1.899 1.552,3.624 3.277,3.624c1.037,0 1.898,-0.517 4.314,-2.587c9.835,-8.455 15.01,-10.872 23.293,-10.872c3.623,0 7.937,0.347 12.595,1.208c-12.249,5.695 -19.841,12.596 -19.841,17.943c-0,1.554 0.517,2.418 2.243,3.28c4.485,2.07 5.176,3.624 5.176,12.251l0,28.64Zm105.767,-54.177c-2.243,-6.038 -3.451,-12.078 -3.451,-16.046c-0,-4.486 1.898,-7.937 6.038,-10.87c2.589,-1.898 2.933,-2.243 2.933,-3.969c0,-1.898 -1.552,-3.278 -3.449,-3.278c-0.864,-0 -1.898,0.174 -3.969,1.036c-6.212,2.587 -11.217,3.623 -16.392,3.623c-5.522,0 -10.18,-1.036 -18.634,-4.313c-0.862,-0.346 -1.726,-0.519 -2.243,-0.519c-1.726,0 -3.452,1.726 -3.452,3.624c0,1.553 0.519,2.243 3.28,3.969c6.556,4.658 7.419,5.866 11.905,18.462l21.223,61.079c2.415,6.728 3.104,9.488 3.104,12.25c0,2.761 -1.034,5.175 -3.104,7.246c-2.243,2.243 -2.59,3.107 -2.59,4.658c0,2.762 1.553,3.624 6.039,3.624l30.196,0c4.141,0 4.658,0 5.866,-0.517c1.38,-0.517 2.416,-1.898 2.416,-3.279c-0,-1.379 -0.519,-2.415 -2.243,-4.486c-2.935,-3.277 -4.488,-7.074 -4.488,-10.869c0,-8.455 4.488,-17.773 15.702,-33.128c14.149,-19.497 18.807,-29.505 18.807,-40.547c0,-13.976 -10.352,-24.673 -23.638,-24.673c-11.905,-0 -21.396,9.145 -21.396,20.705c0,8.281 4.141,14.665 9.491,14.665c2.07,0 2.76,-0.689 2.76,-2.76c0,-4.66 1.208,-6.556 4.313,-6.556c4.141,0 7.248,4.486 7.248,10.525c-0,6.037 -2.762,12.768 -9.835,24.155c-8.972,14.493 -10.525,17.598 -14.149,28.987l-18.288,-52.798Zm100.763,1.899c0,-20.877 0.862,-23.812 7.419,-28.125c2.761,-1.898 3.968,-3.278 3.968,-4.831c0,-1.898 -1.724,-3.451 -3.622,-3.451c-0.691,-0 -1.553,0.172 -2.415,0.691c-6.558,2.932 -10.872,3.969 -17.083,3.969c-5.348,-0 -10.006,-0.864 -16.562,-3.279c-2.418,-0.862 -2.762,-1.036 -3.452,-1.036c-1.726,-0 -3.106,1.553 -3.106,3.106c-0,1.898 0.691,2.588 3.624,4.831c7.592,5.349 8.281,7.42 8.281,28.125l0,52.278c0,7.42 -0.172,10.352 -0.862,12.423c-0.691,2.762 -3.106,5.004 -6.211,6.556c-3.968,1.726 -4.486,2.245 -4.486,3.969c0,2.417 1.379,3.451 4.658,3.451l36.751,0c3.278,0 4.657,-1.034 4.657,-3.451c0,-1.552 -0.689,-2.243 -3.276,-3.45c-7.593,-3.452 -8.283,-5.005 -8.283,-19.498l0,-52.278Zm-8.627,-67.291c-3.623,0 -4.313,0.518 -5.004,3.622l-2.76,13.804c-0.345,2.071 -0.345,2.243 -0.345,2.588c-0,1.553 0.862,2.243 2.588,2.243c1.38,-0 2.07,-0.345 3.451,-2.071l12.423,-15.183c1.035,-1.208 1.379,-2.07 1.379,-2.932c0,-1.553 -1.034,-2.071 -3.967,-2.071l-7.765,0Z" style="fill:#d2ac67;fill-rule:nonzero;"/><path d="M1287.62,2504.5l0,-53.659c0,-8.454 0.862,-10.871 4.831,-14.493c1.379,-1.209 1.725,-1.726 1.725,-2.935c0,-2.587 -2.243,-4.141 -5.694,-4.141c-9.49,0 -20.705,5.695 -27.951,14.149c-2.07,2.416 -3.279,4.831 -3.279,6.384c-0,1.553 0.862,2.588 3.279,3.451c3.278,1.38 4.141,2.933 4.141,7.419l0,37.441c0,14.666 -0.863,16.737 -7.592,19.843c-3.279,1.379 -3.969,2.071 -3.969,3.795c0,2.417 1.381,3.451 4.658,3.451l45.207,0c28.64,0 47.275,-21.739 47.275,-55.385c0,-36.407 -24.846,-62.115 -59.699,-62.115c-25.535,0 -46.067,15.356 -46.067,34.682c-0,6.728 2.587,12.423 5.694,12.423c1.725,0 2.243,-1.036 2.415,-4.316c0.862,-15.872 15.528,-27.778 34.163,-27.778c23.637,0 39.167,18.29 39.167,45.723c-0,23.121 -10.008,36.061 -28.126,36.061l-10.178,0Zm81.093,-5.694c0,7.42 -0.172,10.352 -0.862,12.423c-0.691,2.762 -3.107,5.005 -6.212,6.556c-3.968,1.726 -4.485,2.245 -4.485,3.969c-0,2.417 1.379,3.451 4.658,3.451l36.75,0c3.279,0 4.658,-1.034 4.658,-3.451c0,-1.552 -0.69,-2.243 -3.277,-3.45c-7.593,-3.451 -8.282,-5.004 -8.282,-19.498l0,-39.683c0,-9.49 0.517,-14.321 2.07,-17.945c3.105,-7.937 10.87,-13.112 19.669,-13.112c11.044,-0 19.499,7.937 19.499,18.289c-0,9.489 -7.248,16.735 -16.392,16.735c-7.075,-0 -12.25,-4.313 -12.25,-10.351c-0,-4.487 3.451,-8.109 7.592,-8.109c2.243,-0 4.313,1.551 4.313,3.45c0,0.863 -0.346,1.553 -1.381,2.414c-1.036,0.692 -1.381,1.209 -1.381,2.071c0,1.726 1.381,2.762 3.279,2.762c3.969,-0 6.902,-3.279 6.902,-7.593c-0,-5.694 -5.349,-10.524 -12.078,-10.524c-8.8,-0 -16.219,8.454 -16.219,18.807c0,7.247 2.761,13.112 11.732,24.846c8.8,11.386 16.737,26.572 16.737,32.264c-0,2.243 -1.207,3.796 -4.313,5.177c-2.071,0.862 -2.761,1.726 -2.761,3.277c0,2.59 1.381,3.624 5.175,3.624l34.682,0c5.693,0 7.246,-0.689 7.246,-3.451c-0,-1.898 -0.862,-2.76 -3.796,-3.969c-5.348,-1.896 -9.317,-5.865 -12.249,-12.077l-5.694,-12.25c-1.036,-2.243 -1.554,-3.968 -1.554,-5.177c0,-1.034 0.173,-1.551 0.864,-3.45c0.517,-1.725 0.69,-2.415 0.69,-3.106c-0,-1.724 -1.726,-3.278 -3.624,-3.278c-0.345,0 -0.862,0 -1.379,0.173c-1.726,0.172 -3.107,0.345 -4.316,0.345c-6.037,-0 -10.178,-1.381 -15.527,-5.176c2.76,0.173 2.932,0.173 3.968,0.173c18.118,-0 31.23,-12.596 31.23,-29.677c0,-21.224 -18.807,-36.58 -44.86,-36.58c-17.255,0 -32.266,6.212 -43.136,17.945c-4.141,4.314 -6.038,7.246 -6.038,9.317c-0,2.243 1.035,3.278 3.968,4.141c4.658,1.38 6.384,4.313 6.384,11.906l0,47.792Zm39.857,-109.735l-17.254,-6.039c-2.243,-0.862 -2.243,-0.862 -2.761,-0.862c-1.38,-0 -2.243,0.862 -2.243,2.07c-0,0.862 0.863,1.898 2.761,3.452l15.011,11.214c2.588,1.898 3.624,2.416 5.175,2.416c1.381,-0 2.762,-0.69 4.833,-2.416l13.629,-11.214c2.416,-1.898 2.933,-2.59 2.933,-3.624c-0,-1.036 -0.862,-1.898 -1.896,-1.898c-0.692,-0 -1.037,-0 -2.934,0.862l-17.254,6.039Zm91.962,64.358c0,-10.525 0.692,-17.081 2.245,-21.74c2.588,-7.937 8.972,-12.595 17.081,-12.595c7.936,0 14.147,4.83 14.147,10.87c-0,3.622 -2.243,6.211 -5.348,6.211c-0.69,0 -1.381,-0.172 -1.898,-0.344c-1.381,-0.52 -1.381,-0.52 -1.726,-0.52c-1.206,0 -2.07,1.037 -2.07,2.762c0,6.385 6.901,11.56 15.183,11.56c12.768,-0 23.121,-10.008 23.121,-22.431c-0,-6.038 -2.588,-12.249 -5.176,-12.249c-0.69,-0 -0.864,0.173 -2.07,1.034c-1.726,1.037 -3.797,1.726 -5.695,1.726c-1.898,0 -5.003,-0.862 -7.764,-2.07c-14.665,-6.729 -19.324,-7.938 -29.331,-7.938c-11.388,0 -23.467,3.452 -31.921,9.146c-7.59,5.176 -12.768,10.697 -12.768,13.802c0,1.554 0.692,2.416 2.935,2.933c6.556,1.898 8.109,4.832 8.109,14.84l-0,47.447c-0,7.765 -0,10.181 -0.174,12.078c-0.517,5.003 -2.588,7.763 -6.901,9.834c-3.969,1.726 -4.486,2.245 -4.486,3.969c-0,2.417 1.381,3.451 4.658,3.451l79.714,0c3.796,0 5.694,0.173 9.491,1.381c0.861,0.173 1.379,0.345 1.723,0.345c1.899,-0 3.624,-1.726 3.624,-3.624c0,-1.553 -0.517,-2.415 -3.796,-6.039c-5.865,-6.384 -8.627,-12.94 -10.178,-22.948c-0.864,-6.557 -1.554,-7.936 -3.969,-7.936c-2.243,0 -3.107,1.379 -4.486,6.384c-3.107,11.905 -10.18,17.771 -21.914,17.771c-14.493,0 -20.36,-6.901 -20.36,-23.637l0,-14.149c8.974,0 13.632,3.107 20.36,13.457c1.381,1.899 2.243,2.417 3.624,2.417c2.071,0 3.278,-1.38 3.278,-3.451c-0,-1.036 -0.173,-1.726 -0.862,-3.279c-6.729,-15.011 -7.421,-17.426 -7.937,-31.228c-0,-4.832 -0.69,-6.384 -3.106,-6.384c-2.415,-0 -3.278,1.206 -4.658,7.073c-1.553,7.074 -5.004,10.525 -10.699,10.698l0,-8.627Zm107.149,-8.799c-2.243,-6.039 -3.451,-12.079 -3.451,-16.047c-0,-4.486 1.898,-7.937 6.039,-10.87c2.588,-1.898 2.932,-2.243 2.932,-3.968c0,-1.899 -1.551,-3.28 -3.449,-3.28c-0.864,0 -1.898,0.175 -3.969,1.037c-6.212,2.587 -11.216,3.624 -16.391,3.624c-5.523,-0 -10.18,-1.037 -18.635,-4.314c-0.862,-0.347 -1.726,-0.519 -2.243,-0.519c-1.726,0 -3.451,1.726 -3.451,3.624c-0,1.553 0.519,2.243 3.279,3.969c6.556,4.657 7.42,5.866 11.905,18.462l21.223,61.079c2.415,6.728 3.105,9.489 3.105,12.251c-0,2.76 -1.035,5.175 -3.105,7.245c-2.243,2.243 -2.59,3.107 -2.59,4.658c0,2.762 1.553,3.624 6.039,3.624l30.196,0c4.141,0 4.658,0 5.867,-0.517c1.379,-0.517 2.415,-1.898 2.415,-3.279c0,-1.379 -0.519,-2.415 -2.243,-4.486c-2.934,-3.277 -4.487,-7.073 -4.487,-10.869c-0,-8.455 4.487,-17.773 15.702,-33.129c14.148,-19.496 18.807,-29.504 18.807,-40.546c-0,-13.976 -10.353,-24.674 -23.638,-24.674c-11.906,0 -21.397,9.146 -21.397,20.705c0,8.282 4.142,14.667 9.491,14.667c2.07,-0 2.76,-0.69 2.76,-2.761c0,-4.66 1.209,-6.556 4.313,-6.556c4.142,-0 7.248,4.485 7.248,10.525c0,6.037 -2.762,12.768 -9.835,24.154c-8.972,14.494 -10.525,17.599 -14.149,28.988l-18.288,-52.797Zm117.845,-36.925c-14.666,0 -26.742,5.178 -35.888,15.184c-10.179,11.216 -16.218,27.78 -16.218,44.516c0,34.335 22.429,60.733 51.417,60.733c30.367,-0 52.624,-25.708 52.624,-60.907c0,-16.562 -5.867,-32.781 -16.219,-44.342c-8.972,-10.006 -21.05,-15.184 -35.716,-15.184Zm0.346,10.353c8.455,0.345 15.011,5.866 19.497,16.047c4.141,9.316 6.384,21.222 6.384,33.817c-0,29.332 -10.87,49.863 -26.227,49.863c-15.528,0 -26.398,-20.531 -26.398,-49.69c0,-29.677 11.215,-50.727 26.744,-50.037Zm-0.346,39.34c-4.831,-0 -8.627,3.795 -8.627,8.626c-0,4.658 3.796,8.455 8.627,8.455c4.66,-0 8.454,-3.797 8.454,-8.627c0,-4.659 -3.794,-8.454 -8.454,-8.454Zm98.695,47.102l-0,-53.659c-0,-8.454 0.862,-10.871 4.83,-14.493c1.379,-1.209 1.726,-1.726 1.726,-2.935c-0,-2.587 -2.243,-4.141 -5.694,-4.141c-9.491,0 -20.705,5.695 -27.951,14.149c-2.071,2.416 -3.28,4.831 -3.28,6.384c0,1.553 0.862,2.588 3.28,3.451c3.277,1.38 4.141,2.933 4.141,7.419l-0,37.441c-0,14.666 -0.864,16.737 -7.593,19.843c-3.279,1.379 -3.969,2.071 -3.969,3.795c0,2.417 1.381,3.451 4.659,3.451l45.206,0c28.641,0 47.275,-21.739 47.275,-55.385c-0,-36.407 -24.846,-62.115 -59.698,-62.115c-25.536,0 -46.068,15.356 -46.068,34.682c-0,6.728 2.588,12.423 5.694,12.423c1.726,0 2.243,-1.036 2.415,-4.316c0.863,-15.872 15.528,-27.778 34.163,-27.778c23.637,0 39.167,18.29 39.167,45.723c-0,23.121 -10.008,36.061 -28.125,36.061l-10.178,0Zm103.004,-51.071c0,-10.525 0.691,-17.081 2.245,-21.74c2.588,-7.937 8.972,-12.595 17.081,-12.595c7.935,0 14.147,4.83 14.147,10.87c-0,3.622 -2.243,6.211 -5.348,6.211c-0.689,0 -1.381,-0.172 -1.898,-0.344c-1.381,-0.52 -1.381,-0.52 -1.726,-0.52c-1.206,0 -2.07,1.037 -2.07,2.762c-0,6.385 6.901,11.56 15.183,11.56c12.768,-0 23.121,-10.008 23.121,-22.431c-0,-6.038 -2.589,-12.249 -5.176,-12.249c-0.689,-0 -0.864,0.173 -2.07,1.034c-1.726,1.037 -3.797,1.726 -5.695,1.726c-1.898,0 -5.003,-0.862 -7.765,-2.07c-14.664,-6.729 -19.324,-7.938 -29.33,-7.938c-11.389,0 -23.467,3.452 -31.921,9.146c-7.591,5.176 -12.768,10.697 -12.768,13.802c-0,1.554 0.692,2.416 2.934,2.933c6.557,1.898 8.11,4.832 8.11,14.84l0,47.447c0,7.765 0,10.181 -0.174,12.078c-0.518,5.003 -2.588,7.763 -6.902,9.834c-3.968,1.726 -4.485,2.245 -4.485,3.969c-0,2.417 1.381,3.451 4.658,3.451l79.714,0c3.796,0 5.694,0.173 9.49,1.381c0.862,0.173 1.38,0.345 1.724,0.345c1.898,-0 3.624,-1.726 3.624,-3.624c0,-1.553 -0.517,-2.415 -3.796,-6.039c-5.865,-6.384 -8.627,-12.94 -10.179,-22.948c-0.863,-6.557 -1.553,-7.936 -3.968,-7.936c-2.243,0 -3.107,1.379 -4.486,6.384c-3.106,11.905 -10.18,17.771 -21.914,17.771c-14.493,0 -20.36,-6.901 -20.36,-23.637l0,-14.149c8.974,0 13.631,3.107 20.36,13.457c1.381,1.899 2.243,2.417 3.624,2.417c2.071,0 3.277,-1.38 3.277,-3.451c0,-1.036 -0.172,-1.726 -0.862,-3.279c-6.728,-15.011 -7.42,-17.426 -7.937,-31.228c0,-4.832 -0.689,-6.384 -3.105,-6.384c-2.415,-0 -3.279,1.206 -4.658,7.073c-1.553,7.074 -5.005,10.525 -10.699,10.698l0,-8.627Zm103.525,-6.901c0,-20.361 0.863,-23.639 6.901,-27.78c3.28,-2.243 4.486,-3.622 4.486,-5.176c0,-1.898 -1.724,-3.451 -3.449,-3.451c-0.864,-0 -1.726,0.172 -2.588,0.691c-6.558,2.933 -10.699,3.969 -17.083,3.969c-5.348,-0 -10.006,-0.864 -16.563,-3.279c-2.416,-0.862 -2.762,-1.037 -3.451,-1.037c-1.725,0 -3.106,1.554 -3.106,3.107c-0,1.726 0.863,2.933 3.623,4.831c3.969,2.587 6.212,5.694 7.248,9.318c0.862,3.622 1.034,5.52 1.034,18.807l0,52.278c0,13.632 -1.034,16.219 -7.073,18.979c-3.969,1.726 -4.486,2.245 -4.486,3.969c0,2.417 1.379,3.451 4.658,3.451l36.75,0c3.28,0 4.659,-1.034 4.659,-3.451c-0,-1.552 -0.69,-2.243 -3.278,-3.45c-7.592,-3.451 -8.282,-5.004 -8.282,-19.498l0,-13.457c0,-6.729 2.416,-10.008 7.419,-10.008c4.141,-0 7.247,2.589 10.352,7.937l12.768,23.12c1.381,2.588 2.07,4.659 2.07,6.729c0,2.587 -1.206,3.968 -4.658,5.694c-1.898,0.862 -2.587,1.726 -2.587,3.279c-0,2.071 1.553,3.105 5.003,3.105l37.613,0c3.28,0 4.486,-0.862 4.486,-3.105c0,-1.898 -0.862,-2.762 -4.486,-4.487c-4.313,-1.899 -7.073,-4.486 -9.489,-8.799l-12.078,-21.567c-1.208,-2.071 -1.898,-4.487 -1.898,-6.212c0,-1.553 0.345,-2.76 1.209,-4.313c0.689,-1.209 1.034,-2.071 1.034,-2.76c-0,-4.142 -8.799,-8.974 -20.705,-11.044c2.243,-1.552 3.796,-2.416 7.765,-4.314c8.627,-4.141 11.906,-6.384 16.047,-10.352c5.692,-5.348 8.972,-12.768 8.972,-20.014c-0,-11.733 -8.972,-20.533 -20.705,-20.533c-10.353,0 -18.118,7.421 -18.118,17.6c0,5.865 3.279,11.732 6.731,11.732c1.034,0 1.898,-0.517 2.76,-2.07c0.862,-1.726 2.07,-2.416 3.796,-2.416c2.415,0 4.313,1.899 4.313,4.486c0,3.624 -2.415,6.729 -8.454,10.353c-17.082,10.525 -19.843,12.595 -29.16,21.222l0,-22.084Zm122.157,-38.823c-14.666,0 -26.743,5.178 -35.888,15.184c-10.179,11.216 -16.218,27.78 -16.218,44.516c0,34.335 22.429,60.733 51.416,60.733c30.368,-0 52.624,-25.708 52.624,-60.907c0,-16.562 -5.866,-32.781 -16.218,-44.342c-8.972,-10.006 -21.051,-15.184 -35.716,-15.184Zm0.346,10.353c8.454,0.345 15.011,5.866 19.497,16.047c4.14,9.316 6.384,21.222 6.384,33.817c-0,29.332 -10.87,49.863 -26.227,49.863c-15.529,0 -26.398,-20.531 -26.398,-49.69c0,-29.677 11.215,-50.727 26.744,-50.037Zm-0.346,39.34c-4.831,-0 -8.627,3.795 -8.627,8.626c-0,4.658 3.796,8.455 8.627,8.455c4.659,-0 8.454,-3.797 8.454,-8.627c-0,-4.659 -3.795,-8.454 -8.454,-8.454" style="fill:#d2ac67;fill-rule:nonzero;"/><path d="M1240.16,2355.69l1090.33,-0" style="fill:none;fill-rule:nonzero;stroke:#d2ac67;stroke-width:2.36px;"/><path d="M940.317,2609.93c9.062,-0.058 11.542,-0.553 4.974,7.157l-1.041,1.224c-0.106,0.126 -0.342,0.417 -0.515,0.622c-1.733,-3.438 -1.999,-5.751 -3.418,-9.003Zm45.234,-1.179c-3.16,-0.828 -5.11,-2.198 -6.739,-4.524c3.373,-1.755 5.028,-3.249 10.12,-3.354c-0.359,1.539 -0.639,2.975 -1.212,4.422l-0.688,1.572c-0.793,1.436 -0.788,1.085 -1.481,1.884Zm-73.439,-11.276l0.034,-6.78c5.444,0.488 4.657,1.797 6.737,5.655c-4.295,0.347 -2.379,0.675 -6.771,1.125Zm2.282,-33.894c2.501,-3.728 1.902,-2.467 5.626,-4.511c1.462,3.071 2.262,5.465 2.252,10.199l-5.99,-4.242c-2.066,-1.368 -0.809,-0.514 -1.888,-1.446Zm-94.507,-24.677c-2.167,-3.516 -3.46,-4.017 -3.788,-8.072l7.921,-0.018l-4.133,8.09Zm32.346,-15.998c2.418,-4.525 3.381,-5.464 9.002,-6.748c-0.075,5.199 -0.998,3.764 -1.108,8.964l-7.185,-1.806c-0.118,-0.321 -0.477,-0.265 -0.709,-0.41Zm-62.134,-11.284c0.33,-4.146 1.395,-5.319 2.259,-9.044c4.248,2.249 4.347,1.372 5.65,6.748c-2.71,0.64 -5.671,1.21 -7.909,2.296Zm14.672,-39.55l-0.024,6.77c-3.742,-2.038 -3.131,-0.835 -5.627,-4.557l5.651,-2.213Zm117.51,-51.98c-5.931,0.023 -3.981,-5.85 -3.672,-9.262c0.385,-4.23 -2.177,-7.14 -3.098,-11.058c3.856,2.61 5.416,5.95 8.119,9.947c4.626,6.841 7.375,10.339 -1.349,10.373Zm-94.919,-12.415c3.853,-2.503 2.475,-3.012 7.87,-4.569l47.379,-12.53c19.474,-5.708 24.49,-9.222 18.169,0.138c18.163,26.487 5.49,24.491 12.664,32.565c1.7,1.914 6.943,4.74 9.966,4.74c5.524,0 6.342,-5.336 10.12,-1.155c-6.8,4.821 -32.053,4.844 -40.494,5.758c-5.508,0.596 0.381,1.016 -4.65,1.021l-28.255,-0.004c0,24.519 -2.208,20.649 -3.382,35.034c2.728,2.408 3.505,2.768 6.713,4.581c-1.844,6.83 -8.997,12.591 -11.231,22.534c3,4.502 6.439,7.324 7.891,13.558c-0.241,0.152 -0.612,0.269 -0.785,0.342c-5.533,2.286 -12.157,4.395 -12.764,12.122c-10.151,-1.004 -8.788,-5.956 -13.52,-11.239l-6.812,2.174l5.644,10.151c-8.696,4.616 -9.13,-1.472 -19.176,3.375c-0.02,-6.388 0.003,-10.611 2.279,-14.63c2.809,-4.959 4.399,-7.013 7.89,-7.935c-0.873,-3.159 -2.262,-5.136 -4.542,-6.797c-4.663,2.46 -8.685,5.699 -10.177,11.308c-5.204,-0.593 -2.509,-0.807 -5.997,-5.288c-2.106,-2.704 -3.357,-3.106 -5.281,-6.01c5.655,-8.345 16.871,-8.06 21.413,-11.299c0.164,-7.998 -0.685,-7.123 -6.729,-5.631c0.007,-5.758 -1.032,-5.022 -1.128,-10.209c21.02,0.231 9.154,0.333 22.595,3.421c-0.051,-13.063 -0.137,-23.027 -1.31,-34.852c-0.95,-9.58 -4.285,-20.709 -4.36,-30.674Zm-48.57,-20.342c3.626,-2.147 4.379,-2.234 10.098,-2.273c-0.663,3.253 -1.89,5.199 -3.279,7.905c-3.31,-2.173 -4.53,-2.343 -6.819,-5.632Zm-30.497,-3.389c4.642,-0.488 4.945,-1.989 9.035,0.04c-2.084,2.985 -2.591,3.066 -4.533,6.721c-3.056,-2.085 -4.079,-2.233 -4.502,-6.761Zm282.463,-23.736c-0.084,-32.416 37.9,-49.227 40.662,-49.197c0.02,-0 39.808,18.149 40.705,48.041c0.551,18.291 -9.015,33.626 -20.37,39.547l-6.119,-15.326c-6.666,-11.052 -3.694,-8.62 -6.291,-14.039c-25.908,6.032 -18.156,19.877 -18.095,32.788c-18.262,-4.359 -30.51,-19.652 -30.492,-41.814Zm-301.688,-4.501c0.819,-3.31 1.87,-4.495 3.403,-6.788c3.08,2.026 4.14,2.061 4.488,6.771l-7.891,0.017Zm20.302,-35.007c-0.337,4.706 -1.235,3.698 -2.206,7.869c-3.99,-1.089 -3.5,-1.232 -4.421,-5.438l6.627,-2.431Zm15.897,-88.185l3.341,3.426c-4.666,3.229 -5.013,2.029 -9.041,1.112l-0.02,-6.766c2.466,0.562 3.991,1.076 5.72,2.228Zm166.064,-18.063c-6.282,1.445 -18.333,3.938 -26.099,1.226c-4.574,-1.597 -2.284,-0.652 -4.345,-4.572c8.017,-0.023 24.071,-1.037 30.444,3.346Zm-188.687,-3.39c0.079,-3.429 0.505,-4.09 1.161,-6.729c5.066,1.151 5.535,1.619 6.73,6.713l-7.891,0.016Zm133.236,-10.076c15.413,4.299 25.349,-6.001 54.167,1.197c4.853,1.212 5.315,0.256 5.803,5.48c-9.965,-0.782 -10.853,-3.38 -27.129,-3.393c-14.297,-0.012 -19.463,0.315 -31.368,2.654c-14.376,2.824 -14.938,-8.483 -14.96,-17.346l2.579,4.231c0.563,0.741 1.998,2.259 2.736,2.912c2.575,2.279 4.642,3.28 8.172,4.265Zm38.215,-11.158c10.978,1.234 10.895,3.103 16.083,4.295c-1.454,0.914 2.821,2.202 -6.829,0.091c-12.802,-2.799 -15.158,-0.926 -24.788,-0.099l15.534,-4.287Zm-146.595,-5.864c5.216,-2.762 6.403,-4.871 7.896,-11.295c7.022,3.702 14.91,8.154 16.943,16.935c4.621,-0.121 4.954,-0.703 7.963,-2.251c-0.508,-5.715 -0.877,-1.773 -2.296,-6.791l10.151,0.013c0.45,5.454 1.511,9.603 1.159,16.957c-0.318,6.653 -2.256,8.554 -3.419,13.553l26.767,13.92c6.75,3.662 38.637,21.365 41.023,24.489c-26.963,14.084 -22.374,23.181 -28.237,31.629c-10.037,-6.959 -23.494,-21.555 -30.542,-31.624c-4.596,1.061 -5.264,1.085 -11.235,1.129c-3.821,-16.405 -7.655,-19.066 -13.523,-30.518c-5.499,3.525 -5.961,9.236 -15.87,14.723c-2.057,-9.466 -9.723,-8.896 -13.553,-11.334c0.685,-8.195 5.308,-8.011 9.015,-11.298c-0.271,-3.464 -1.056,-5.443 -2.242,-7.918l-10.168,5.649c-1.779,-7.787 -6.584,-7.726 -10.182,-12.402c9.598,-6.49 13.24,-9.172 28.444,1.332l5.456,-4.707c-1.855,-2.837 -3.132,-4.121 -6.262,-6.199l-7.288,-3.992Zm32.765,-13.558c4.691,1.261 2.375,0.515 4.493,4.499l-5.804,-0.072l1.311,-4.427Zm-35.05,7.935c-1.31,-2.823 -1.86,-5.112 -3.364,-7.949c4.029,0.016 7.201,-0.998 7.602,2.202c0.295,2.353 -2.566,4.613 -4.238,5.747Zm170.63,-35.051c-1.26,-2.66 -0.987,-4.147 -2.26,-6.781l61.261,0.049l-1.397,6.715l-57.604,0.017Zm13.527,-16.952c3.8,-4.195 2.406,-6.1 6.312,-11.806c2.479,-3.622 5.082,-6.297 8.399,-8.542c12.196,6.462 10.687,16.59 15.83,20.352c1.869,-7.169 12.375,-16.648 21.436,-16.974c-1.104,2.387 -4.421,17.889 -4.506,21.472l-64.378,-0c-0.59,-6.762 -3.995,-14.767 -4.529,-21.445c10.557,0.99 17.001,8.555 21.436,16.943Zm50.864,20.333c0.351,-4.011 9.154,-43.031 10.241,-45.202c-13.456,-0.014 -24.244,3.243 -29.456,11.297c-2.843,-3.341 -4.075,-5.975 -7.572,-9.367c-13.017,-12.629 -17.463,0.515 -25.188,9.354c-5.036,-7.588 -16.519,-11.255 -29.38,-11.284c0.353,4.004 9.073,42.938 10.179,45.202c-0.227,0.157 -0.568,0.322 -0.723,0.405c-0.155,0.082 -0.535,0.302 -0.728,0.402c-0.261,0.135 -1.197,0.602 -1.506,0.753l-8.552,5.003c-13.641,10.962 -1.844,3.903 -23.38,12.767c-3.468,1.428 -9.193,3.714 -12.575,5.517c0.664,8.195 6.184,16.456 7.904,23.753c-14.982,-0.117 -21.444,-1.7 -21.444,-16.973c-18.832,1.558 -14.398,30.713 -0.236,35.287c7.713,2.492 16.09,-1.76 23.966,-2.55c-0.958,3.927 -2.18,6.76 -3.311,10.308l-1.199,8.944c2.332,3.853 11.159,4.884 15.668,5.782c4.633,0.922 12.704,0.504 17.066,3.239c-11.151,-0.007 -30.553,8.795 -39.534,3.405l-64.406,-36.192c4.26,-8.902 2.376,-22.823 -1.082,-30.497c-4.75,-10.536 -8.266,-12.84 -18.094,-18.024c-2.294,4.311 -3.335,9.579 -6.805,13.518c-3.405,-0.913 -5.976,-3.27 -9.793,-4.884c-9.19,-3.886 -22.952,-4.576 -30.882,-0.756c1.815,2.825 3.555,5.003 5.31,8.269c1.817,3.379 2.251,5.609 3.721,8.705c-9.34,4.353 -11.619,1.831 -19.417,12.186c-3.422,4.543 -7.936,18.044 -5.449,23.941l18.077,0.019c0.044,11.091 0.627,16.14 -3.363,23.713c9.561,4.5 23.184,4.303 33.037,-1.998c3.376,-2.159 4.706,-3.93 7.646,-5.933c10.565,20.805 -0.307,29.139 22.592,23.744c8.458,13.11 28.932,26.898 32.695,32.779c-20.208,10.564 -40.153,21.52 -58.694,33.854c-4.51,-2.96 -4.444,-4.975 -10.122,-7.937c-12.338,-6.432 -25.656,-6.295 -38.125,0.386c-3.833,2.055 -6.098,4.361 -8.267,7.591c4.172,2.131 7.483,5.043 10.195,9.016c-6.386,3.378 -8.945,4.574 -13.295,10.453c-4.604,6.224 -7.076,14.42 -7.029,22.339c6.047,-2.978 9.39,-2.273 18.065,-2.268c-1.384,5.646 -2.766,7.658 -1.245,13.572c3.072,11.942 10.702,20.214 21.578,25.981c1.917,-2.991 1.211,-6.263 2.683,-9.753c1.187,-2.818 2.692,-4.526 4.131,-7.231c7.118,4.984 14.767,13.772 21.542,18.149c2.897,-4.61 6.184,-6.142 9.321,-12.077c6.293,-11.902 4.064,-16.36 3.005,-27.511c9.447,-0.026 22.122,1.592 28.246,4.519c2.583,-4.895 5.321,-8.51 6.778,-14.688c8.717,-0.013 14.043,-1.836 21.243,-3.631c5.212,-1.299 14.378,-4.987 19.472,-5.407c7.275,14.492 13.225,19.688 21.409,31.617l-32.112,9.693c-39.293,11.117 -47.537,4.472 -42.137,36.321c1.805,10.652 3.326,25.419 4.199,37.66c-10.753,-0.398 -12.626,-2.456 -24.706,2.328c-6.495,2.572 -11.651,7.44 -14.853,13.433c3.885,2.662 8.934,3.722 12.437,6.778c-6.618,8.832 -17.244,9.95 -16.927,38.396c5.572,-0.382 13.657,-5.881 23.73,-6.765c-3.444,7.025 1.421,18.774 4.91,23.324c3.845,5.014 10.17,11.091 17.705,11.713c-0.047,-6.339 0.567,-9.647 2.774,-14.165c2.179,-4.46 4.968,-5.989 7.359,-9.56l25.995,6.777l2.314,-4.478c5.888,-14.644 2.777,-22.531 -4.566,-33.944c1.088,-4.552 3.527,-7.928 5.581,-11.351l6.856,-10.107c-2.322,-3.484 -4.825,-6.362 -7.917,-9.047c3.227,-6.59 3.292,-16.661 3.389,-23.726c20.526,-0 43.326,-0.67 59.864,-4.511c-4.202,7.809 -9.006,14.224 -10.122,23.796c-2.83,24.282 8.833,47.927 30.541,58.611c5.345,2.631 2.847,-0.475 4.437,3.451c-0.165,1.988 -5.11,24.873 -5.641,25.986c-1.179,1.163 -5.325,-0.735 -5.785,-0.866c-15.187,-4.333 -36.794,3.587 -40.551,20.074l13.621,5.657c-4.265,5.876 -7.892,6.136 -10.721,14.179c-3.573,10.156 -0.629,11.976 -0.742,20.85c13.245,-2.99 12.906,-3.426 27.222,-3.393c0.703,10.798 5.873,18.485 13.418,24.964l5.73,-5.832c3.812,-6.478 7.692,-10.278 13.44,-14.802l2.535,-2.053l20.279,13.54c2.713,-4.078 5.476,-6.02 7.925,-11.253c7.452,-15.927 -0.621,-28.682 -7.947,-39.59l15.822,-15.825c-7.247,-14.858 -5.702,-14.582 6.145,-30.012c9.232,-12.023 5.667,-14.382 -5.499,-21.515c-12.939,-8.265 -27.253,-27.083 -14.217,-42.236c1.752,1.283 11.883,14.624 17.862,19.41c12.067,9.661 33.011,13.473 48.516,7.423c22.612,-8.82 34.061,-32.455 34.186,-56.213c13.742,-3.21 24.947,-12.958 33.639,-21.719c3.856,-3.888 8.62,-10.617 11.087,-16.045c6.148,-13.527 6.114,-24.954 6.116,-39.074c0.004,-33.959 -39.081,-53.543 -42.933,-58.764c28.875,-18.757 25.579,-45.257 29.971,-55.884c4.466,-10.804 15.241,-4.151 15.226,-35.619c-0.004,-7.237 -6.632,-15.814 -9.926,-20.596l-11.536,-18.993c-4.238,1.06 -6.129,2.956 -9.255,5.505c-13.309,10.852 -17.077,28.647 -8.896,44.292c1.381,2.64 5.791,8.56 8.151,10.335l5.472,-4.712c-4.141,-6.172 -10.459,-12.095 -10.282,-22.602c0.157,-9.285 5.831,-17.748 11.354,-21.409c8.01,14.851 27.39,31.102 11.027,50.462c-3.355,3.969 -5.793,5.496 -9.858,8.214c0,17.552 -5.293,32.413 -12.882,42.507c-15.918,21.173 -45.947,27.167 -65.363,44.206c-7.247,6.361 -13.044,15.481 -15.72,24.967c-2.046,7.254 -2.06,15.399 -2.063,22.78c-0.007,17.553 25.203,42.697 45.204,42.942c0.371,-4.198 1.129,-3.223 1.129,-7.918c0,-6.287 -1.732,-9.994 -1.204,-16.939c0.438,-5.754 1.857,-5.854 5.715,-7.918c0.857,1.003 0.083,-0.025 1.531,1.857c2.948,3.829 5.532,7.483 6.856,12.371c1.988,7.342 -0.372,12.984 -1.604,18.555c8.166,-0.697 24.086,-12.522 28.414,-17.914c15.147,-18.868 14.895,-48.679 -2.693,-67.712c-4.18,-4.524 -21.064,-17.929 -26.864,-19.474c1.467,-1.237 0.512,-0.561 2.643,-1.845c0.904,-0.545 2.25,-1.223 2.954,-1.569c2.384,-1.171 2.731,-1.568 5.711,-2.198c7.092,1.822 25.301,18.262 30.177,24.032c11.63,13.771 15.774,45.187 6.362,64.453c-1.706,3.491 -2.983,6.044 -4.89,8.673c-8.12,11.187 -27.148,25.95 -40.724,27.091c0.127,12.667 -3.732,29.504 -8.775,37.505c-6.251,9.918 -14.652,17.83 -27.401,18.925c-15.95,1.369 -24.956,-0.9 -35.145,-8.807c-11.154,-8.658 -11.672,-13.644 -18.08,-24.86l-0.949,-1.322c-24.084,16.229 -16.418,46.861 5.6,61.074c15.374,9.924 5.841,5.074 -9,33.861c1.852,3.592 3.697,6.438 5.65,10.169c-0.201,0.175 -0.496,0.404 -0.621,0.508l-17.472,18.7c5.526,7.511 13.101,8.613 13.619,22.587c-11.654,0.244 -11.27,5.878 -16.983,7.906c-5.054,-3.383 -7.718,-8.31 -10.138,-13.565c-10.569,0.893 -4.629,8.144 -1.384,13.403l-5.426,4.704c-5.569,-1.353 -8.675,-5.726 -15.796,-2.293c0.691,-8.815 3.085,-11.473 6.787,-16.925c-1.906,-2.797 -2.069,-3.536 -5.679,-4.526c-3.944,2.591 -7.422,8.565 -7.917,14.686c-3.189,-0.73 -3.601,-1.12 -7.892,-1.131c-0.548,-8.486 -4.595,-7.593 -7.909,-12.409c13.765,-7.301 17.625,1.302 18.122,-12.443l-6.824,-0.031c0.531,-5.833 -1.038,-10.346 -2.259,-15.773c16.346,-1.305 15.085,-0.317 29.344,6.748c0.444,-11.46 3.813,-24.271 6.343,-35.456c1.051,-4.644 2.366,-6.506 2.732,-10.844l-2.362,-1.036c-15.685,-5.928 -28.228,-14.927 -32.725,-32.807c-5.29,-21.023 2.31,-38.499 15.888,-47.488l-5.882,-15.62c-14.792,-30.337 -58.463,-57.299 -60.791,-83.836c-8.289,3.994 -40.704,13.363 -51.99,13.563c-1.198,4.931 -2.094,7.639 -4.519,11.298c-19.262,-1.67 -7.026,-3.412 -35.074,-1.14c0.755,7.938 3.353,9.687 3.483,19.217c-11.082,-0.047 -10.632,1.242 -16.961,5.667c-3.265,-4.857 -3.425,-5.609 -3.381,-13.602c-4.668,-0.055 -3.788,-0.74 -7.967,-1.148c-0.336,4.367 -1.818,5.224 0.043,8.754l-11.314,-0.8c-3.763,-0.359 -4.886,4.523 -6.421,-0.353c-2.409,-7.654 5.368,-16.105 12.079,-17.707c-0.336,-4.115 -1.387,-5.444 -2.273,-9.043c-3.783,1.949 -6.479,3.695 -10.132,5.658c-1.466,-6.082 -2.767,-6.92 -5.672,-11.312c1.662,-1.449 2.256,-1.961 4.978,-2.914c6.677,-2.339 8.774,-0.926 15.239,-0.559l2.353,-7.838c-4.382,-0.385 -3.567,-1.161 -9.012,-1.118l4.506,-11.276c7.852,0.007 11.531,1.582 16.177,5.276c4.037,3.211 6.314,7.078 8.586,11.646c4.669,-1.051 12.104,-6.853 16.373,-9.706l48.103,-28.695c0.537,5.933 3.02,8.686 3.403,13.558c3.945,-0.327 1.898,0.054 4.558,-1.11l3.384,-2.288c-3.445,-13.899 -5.558,-23.358 1.067,-36.208c16.289,-31.596 82.533,-16.141 84.785,-45.149c-20.917,0.007 -18.345,4.924 -41.65,-0.219c-4.733,-1.045 -6.457,-3.244 -3.477,-7.691c2.115,3.355 0.846,2.506 5.353,3.613c6.747,1.656 19.446,1.712 25.285,0.018c36.018,-10.448 5.606,-57.917 -34.005,-36.435c-0.411,-3.502 -2.232,-8.66 -3.478,-11.241l22.21,-8.264c5.164,-1.959 2.015,-0.176 5.286,-3.781c6.021,-6.642 15.824,-12.812 25.596,-12.812c9.289,-0 24.408,2.505 30.466,7.91c2.826,-1.848 5.095,-3.525 8.891,-4.713c11.816,-3.694 13.304,-0.639 11.054,13.308c-0.511,3.175 -2.948,10.532 -2.957,11.733c-0.05,6.307 10.164,21.722 10.158,44.063c-0.009,39.63 -32.724,56.925 -43.272,78.748c-5.011,10.366 -5.28,18.124 -5.317,33.105c0.354,4.342 1.937,8.085 2.272,12.593l7.958,-2.415c-0.526,-5.359 -2.163,-8.476 -2.338,-14.659c-0.353,-12.508 2.45,-28.12 12.435,-35.063c-1.152,4.978 -1.112,6.068 -1.117,12.428c-0.003,4.04 -1.325,3.487 -1.179,9.006l1.222,15.819c0.349,4.444 1.106,2.898 1.112,5.681c0.048,24.451 18.908,50.112 22.297,74.838c1.316,9.598 -1.266,14.154 2.181,22.689c4.46,11.044 9.886,22.11 19.524,29.055c15.181,10.943 34.603,7.674 45.073,-8.131c5.685,-8.585 7.252,-19.946 8.088,-30.297c-4.695,-2.336 -11.92,-3.416 -17.127,-5.513c-14.748,-5.937 -29.02,-15.743 -36.389,-30.248c-11.545,-22.725 -8.34,-49.402 5.394,-67.742c13.485,-18.007 35.531,-24.589 54.536,-34.718c18.711,-9.973 32.887,-27.208 33.156,-55.043c-3.602,-1.849 -4.405,-2.146 -7.021,-5.408c-1.727,-2.152 -3.66,-4.739 -5.084,-7.347c-9.873,-18.084 -7.758,-34.56 4.603,-51.166c3.384,-4.545 7.928,-8.137 12.766,-10.961l4.876,-3.041c-0.009,-11.268 -2.431,-8.619 -11.544,-2.501c-22.351,15.006 -33.241,44.588 -19.365,69.55c1.912,3.438 3.904,5.922 5.993,8.703c1.333,1.779 1.307,1.922 3.133,3.643c1.04,0.979 0.652,0.563 1.827,1.554l1.857,1.53c-1.777,23.618 -11.046,31.055 -28.231,42.935c-15.835,-11.007 -21.271,-24.643 -21.471,-45.201c6.892,-3.562 13.456,-11.785 17.165,-18.975c15.643,-30.329 -14.17,-65.239 -30.727,-69.169l0.04,9.026c11.285,6.125 19.308,14.354 24.209,26.637c12.466,31.245 -17.175,44.172 -18.877,50.464c-1.01,3.73 1.52,17.022 2.4,21.361c4.08,20.119 11.265,18.338 19.343,30.374c-4.34,1.006 -4.767,2.405 -9.03,3.36c-6.965,-4.587 -13.392,-13.133 -17.108,-21.266c-6.645,-14.544 -1.325,-30.683 -6.765,-36.176c-0.872,-0.88 -1.916,-1.589 -2.975,-2.679c-2.026,-2.086 -3.277,-4.148 -4.807,-6.485c-2.995,-4.574 -4.891,-10.581 -2.71,-18.575c2.941,-10.783 12.526,-18.616 17.387,-27.76c5.448,3.589 10.643,10.711 10.283,20.306c-0.399,10.618 -6.196,13.197 -10.285,19.225c2.036,3.709 0.952,3.193 4.553,5.669c18.537,-12.283 16.815,-38.685 -0.313,-52.814l-7.271,-3.378c-5.915,10.958 -15.178,20.258 -20.214,31.77c-4.505,10.296 -3.006,22.52 3.708,31.546c2.59,3.483 2.785,5.265 7.133,6.423c-0,12.892 1.301,25.994 5.306,35.353c2.226,5.198 4.242,8.684 7.419,12.931c3.041,4.065 6.353,6.965 8.751,10.432c-6.97,3.75 -13.354,7.406 -19.39,12.273c-33.502,27.012 -37.882,74.133 -7.451,104.978c6.29,6.374 9.833,8.176 17.567,12.949c7.119,4.394 14.451,5.316 21.693,8.791c-0.157,18.964 -11.275,35.954 -31.343,30.239c-11.534,-3.285 -23.037,-18.14 -25.624,-29.776c-0.89,-4.005 1.471,-11.539 -1.307,-24.646c-7.758,-36.614 -22.949,-48.755 -23.052,-93.317c-0.103,-44.277 7.97,-26.801 22.927,-61.78c10.144,-23.725 7.451,-45.893 -2.039,-69.936c-2.379,-6.024 2.964,-15.241 1.582,-26.343c-0.544,-4.367 -2.165,-6.675 -2.147,-10.283" style="fill:#d2ac67;"/><path d="M982.994,2255.97c4.275,-5.03 8.003,-11.943 9.819,-19.556c4.251,-17.836 -0.846,-34.797 -7.253,-46.814c-3.525,0.832 -4.458,1.358 -6.756,3.399c24.172,56.296 -14.7,67.575 -39.339,91.755l-13.062,16.32c-7.089,12.798 -6.404,32.488 0.406,46.707c1.873,-0.895 1.936,-0.666 4.086,-1.532l3.798,-1.853c-2.913,-6.343 -4.666,-15.043 -4.556,-24.901c0.296,-26.395 30.51,-37.221 52.857,-63.525" style="fill:#d2ac67;"/><path d="M968.292,2249.18c8.198,-10.113 12.569,-29.803 7.1,-41.505c-7.726,0.05 -8.103,-0.18 -7.264,5.887c4.432,32.05 -14.002,41.699 -39.811,55.493c-11.212,5.993 -24.4,14.946 -30.676,25.833c-7.162,12.424 -5.123,38.406 -0.216,46.122c4.922,-0.099 3.591,-0.755 7.917,-1.105c-3.947,-16.487 -8.15,-28.728 1.608,-43.617c8.77,-13.383 31.757,-22.95 47.452,-33.868c5.509,-3.834 9.718,-8.093 13.89,-13.24" style="fill:#d2ac67;"/><path d="M878.203,2325.18c-0.542,-7.401 -3.363,-12.872 -3.458,-21.448c-0.601,-54.582 82.285,-23.752 87.089,-83.595l-9.043,-0.063c-0.028,15.063 -9.542,24.533 -19.938,29.812c-14.838,7.533 -26.103,7.137 -37.336,12.396c-24.105,11.285 -33.945,29.035 -27.758,55.28c0.9,3.818 1.741,5.263 2.541,8.832c4.755,-0.118 4.306,-0.32 7.903,-1.214" style="fill:#d2ac67;"/><path d="M940.335,2170.4c-2.648,3.574 -3.019,3.541 -5.627,0c0.788,-4.41 4.013,-2.117 5.627,0Zm-20.32,-3.39c6.527,9.533 4.222,-1.529 9.611,7.257c1.184,1.93 1.276,2.51 3.189,3.72c5.929,3.756 12.072,0.762 14.34,-8.681c3.053,0.67 3.257,0.962 5.64,2.232c1.424,-5.336 1.744,-0.969 2.269,-6.797c-8.402,-1.96 -17.552,-6.361 -29.434,-1.155c-2.552,1.117 -3.68,1.658 -5.615,3.424" style="fill:#d2ac67;"/></g></svg>