<?xml version="1.0" encoding="UTF-8" standalone="no"?><!DOCTYPE svg PUBLIC "-//W3C//DTD SVG 1.1//EN" "http://www.w3.org/Graphics/SVG/1.1/DTD/svg11.dtd"><svg width="100%" height="100%" viewBox="0 0 795 204" version="1.1" xmlns="http://www.w3.org/2000/svg" xmlns:xlink="http://www.w3.org/1999/xlink" xml:space="preserve" xmlns:serif="http://www.serif.com/" style="fill-rule:evenodd;clip-rule:evenodd;stroke-linejoin:round;stroke-miterlimit:2;"><g id="Vrstva-1" serif:id="Vrstva 1"><g id="ink_ext_XXXXXX"><g id="g10"><path id="path12" d="M181.061,13.04l605.976,0l0,61.422l-605.976,0l0,-61.422" style="fill:#d3b67f;fill-rule:nonzero;"/><path id="path14" d="M181.061,137.255l0,56.89l107.899,0c0,0 0.033,-10.991 0.033,-12.116c-0,-1.1 -0.706,-1.534 -1.573,-1.556c-0.847,-0.032 -70.682,0 -70.682,0l0.022,-20.351l61.263,0l-0,-11.941c-0,-1.026 -0.564,-1.59 -1.584,-1.59l-59.679,-0l-0,-20.805l72.2,-0l0,-12.105c0,-1.101 -0.705,-1.426 -1.573,-1.426l-81.488,-0c-13.77,-0 -24.838,11.198 -24.838,25" style="fill:#231f20;fill-rule:nonzero;"/><path id="path16" d="M328.457,112.255l82.404,-0c1.023,-0 1.609,0.395 1.609,1.433l-0,12.076l-73.271,0l0,53.429l59.147,0l0,-19.075l-36.577,-0l-0,-11.954c-0,-0.818 0.586,-1.545 1.649,-1.545c9.158,0 46.686,-0.021 47.435,-0.021c0.833,-0 1.617,0.716 1.617,1.583l-0,45.964l-108.894,0l0,-56.89c0,-13.802 11.144,-25 24.881,-25" style="fill:#231f20;fill-rule:nonzero;"/><path id="path18" d="M453.854,112.255l82.411,-0c1.007,-0 1.595,0.395 1.595,1.433l0,12.076l-73.255,0l-0.009,53.429l59.148,0l-0,-19.075l-36.57,-0c0,-0 0.022,-11.107 0.022,-11.937c-0,-0.824 0.555,-1.562 1.606,-1.562c9.171,0 46.704,-0.021 47.45,-0.021c0.827,-0 1.608,0.716 1.608,1.583l0,45.964l-108.886,0l-0,-56.896c-0,-13.807 11.141,-24.994 24.88,-24.994" style="fill:#231f20;fill-rule:nonzero;"/><path id="path20" d="M554.462,137.255l-0,56.89l107.931,0l-0,-12.116c-0,-1.1 -0.706,-1.534 -1.572,-1.556c-0.845,-0.032 -70.695,0 -70.695,0l0.023,-20.355l61.266,-0l0,-11.937c0,-1.026 -0.555,-1.595 -1.572,-1.595l-59.694,0l-0,-20.8l72.216,-0l0,-12.11c0,-1.096 -0.705,-1.421 -1.578,-1.421l-81.5,-0c-13.761,-0 -24.825,11.198 -24.825,25" style="fill:#231f20;fill-rule:nonzero;"/><path id="path22" d="M6.582,112.255l118.848,-0l-0,15.278l-63.119,-0l0,17.871l63.119,-0l-0,15.766l-62.837,-0l-0,17.763l62.837,-0l-0,15.212l-118.848,-0.006l-0,-81.884" style="fill:#d3b67f;fill-rule:nonzero;"/><path id="path24" d="M765.521,112.259c11.872,0 21.494,11.997 21.494,23.926c0,11.931 -9.678,23.933 -21.572,23.933l-9.689,-0l36.678,31.123c-0,0 3.633,2.904 -0.206,2.904l-38.989,0c-1.616,0.033 -2.377,-0.944 -4.016,-2.267c1.294,0.878 -36.684,-31.76 -36.684,-31.76l0,34.027l-35.6,0l0,-56.89c0,-13.802 11.078,-24.996 24.812,-24.996l63.772,0Zm-4.884,34.404c3.8,-0 9.212,-3.933 9.212,-10.439c-0,-7.205 -5.089,-10.401 -9.212,-10.401l-48.1,-0l0,20.844l48.1,-0.037l0,0.033" style="fill:#231f20;"/></g></g></g></svg>