<?xml version="1.0" encoding="UTF-8" standalone="no"?>
<!DOCTYPE svg PUBLIC "-//W3C//DTD SVG 1.1//EN" "http://www.w3.org/Graphics/SVG/1.1/DTD/svg11.dtd">
<svg width="100%" height="100%" viewBox="0 0 990 283" version="1.1" xmlns="http://www.w3.org/2000/svg" xmlns:xlink="http://www.w3.org/1999/xlink" xml:space="preserve" xmlns:serif="http://www.serif.com/" style="fill-rule:evenodd;clip-rule:evenodd;stroke-linejoin:round;stroke-miterlimit:2;">
    <g transform="matrix(1,0,0,1,-1783,-1237)">
        <g id="Vrstva-1" serif:id="Vrstva 1" transform="matrix(5.55556,0,0,5.55556,0,0)">
            <g transform="matrix(0.0629635,0,0,0.0629635,409.062,248.904)">
                <g transform="matrix(1,0,0,1,-1385.83,-378.056)">
                    <g id="Layer_1" transform="matrix(5.55556,0,0,5.55556,0,0)">
                        <g>
                            <path d="M208.9,63.2L191,63.2L191,45.4L181.3,45.4L181.3,90.7L191,90.7L191,71.7L208.9,71.7L208.9,90.7L218.6,90.7L218.6,45.4L208.9,45.4L208.9,63.2Z" style="fill:rgb(211,182,127);fill-rule:nonzero;"/>
                            <path d="M249.2,44.7C235.4,44.7 225.6,53.8 225.6,68C225.6,82.1 235.1,91.3 249.2,91.3C263,91.3 272.7,82.2 272.7,68C272.7,54 263.1,44.7 249.2,44.7ZM249.2,82.7C240.8,82.7 235.5,77 235.5,68C235.5,59.1 240.8,53.3 249.2,53.3C257.5,53.3 262.9,59 262.9,68C262.9,76.9 257.6,82.7 249.2,82.7Z" style="fill:rgb(211,182,127);fill-rule:nonzero;"/>
                            <path d="M304.9,76L288.3,45.4L279.8,45.4L279.8,90.7L289.4,90.7L289.4,66.9L301.7,90.2L308,90.2L320.1,66.9L320.1,90.7L329.8,90.7L329.8,45.4L321.2,45.4L304.9,76Z" style="fill:rgb(211,182,127);fill-rule:nonzero;"/>
                            <path d="M353.9,45.4L334.4,90.8L345,90.8L348.7,82.1L367.3,82.1L371,90.8L381.6,90.8L362.1,45.4L353.9,45.4ZM352.1,74.5L358.1,60.3L364.1,74.5L352.1,74.5Z" style="fill:rgb(211,182,127);fill-rule:nonzero;"/>
                            <path d="M406.1,45.4L386.3,45.4L386.3,90.8L395.9,90.8L395.9,74.8L406,74.8C415,74.8 420.7,69.2 420.7,60.1C420.8,50.9 415,45.4 406.1,45.4ZM404.9,66.2L396,66.2L396,53.9L404.9,53.9C408.5,53.9 411,56.2 411,60C410.9,63.9 408.6,66.2 404.9,66.2Z" style="fill:rgb(211,182,127);fill-rule:nonzero;"/>
                            <path d="M436.6,45.4L417.1,90.8L427.7,90.8L431.4,82.1L450,82.1L453.7,90.8L464.3,90.8L444.8,45.4L436.6,45.4ZM434.8,74.5L440.8,60.3L446.8,74.5L434.8,74.5Z" style="fill:rgb(211,182,127);fill-rule:nonzero;"/>
                            <path d="M479.3,82.2L479.3,45.4L469.7,45.4L469.7,90.7L498.9,90.7L498.9,82.2L479.3,82.2Z" style="fill:rgb(211,182,127);fill-rule:nonzero;"/>
                            <path d="M45.4,0L0,0L0,136.1L45.4,136.1L45.4,90.7L68,68L45.4,45.4L45.4,0Z" style="fill:rgb(211,182,127);fill-rule:nonzero;"/>
                            <path d="M90.7,45.4L68,68L90.7,90.7L90.7,136.1L136.1,136.1L136.1,0L90.7,0L90.7,45.4Z" style="fill:rgb(211,182,127);fill-rule:nonzero;"/>
                        </g>
                    </g>
                </g>
            </g>
        </g>
    </g>
</svg>
