<?xml version="1.0" encoding="UTF-8" standalone="no"?><!DOCTYPE svg PUBLIC "-//W3C//DTD SVG 1.1//EN" "http://www.w3.org/Graphics/SVG/1.1/DTD/svg11.dtd"><svg width="100%" height="100%" viewBox="0 0 388 135" version="1.1" xmlns="http://www.w3.org/2000/svg" xmlns:xlink="http://www.w3.org/1999/xlink" xml:space="preserve" xmlns:serif="http://www.serif.com/" style="fill-rule:evenodd;clip-rule:evenodd;stroke-linejoin:round;stroke-miterlimit:2;"><g id="Vrstva-1" serif:id="Vrstva 1"><path id="path4" d="M323.824,110.62l25.922,-0l0,-22.999c0,-16.889 7.561,-24.615 21.063,-24.615l2.16,0l-0,-26.951c-12.241,-0.539 -19.082,5.929 -23.223,15.991l0,-14.733l-25.922,-0l-0,73.307Zm-57.066,-42.763c1.44,-8.085 5.94,-13.295 12.781,-13.295c7.021,-0 12.061,5.21 12.961,13.295l-25.742,0Zm15.121,44.559c14.582,0 24.843,-5.929 31.864,-14.913l-14.222,-11.858c-5.22,5.21 -10.081,7.367 -16.382,7.367c-8.101,-0 -13.861,-4.133 -15.841,-12.039l49.325,0c0.18,-1.796 0.18,-3.593 0.18,-5.21c-0,-21.561 -11.701,-40.067 -37.084,-40.067c-21.782,-0 -37.084,16.889 -37.084,38.27l0,0.36c-0.36,22.638 16.022,38.09 39.244,38.09Zm-87.129,-28.029c-8.821,0 -15.122,-5.929 -15.122,-14.014l0,-0.18c0,-8.265 6.301,-14.374 15.122,-14.374c8.641,0 15.121,6.109 15.121,14.194l0,0.36c0,7.905 -6.3,14.014 -15.121,14.014Zm-1.44,48.153c15.301,-0 25.742,-3.594 32.403,-10.242c6.481,-6.288 9.541,-15.811 9.541,-29.286l0,-55.699l-25.923,-0l0,8.624c-5.4,-5.749 -12.061,-10.241 -23.042,-10.241c-16.922,-0 -31.863,12.936 -31.863,34.138l-0,0.359c-0,21.022 14.761,33.958 32.763,33.958c10.621,0 17.462,-5.031 22.502,-10.96l0,2.875c0,11.679 -6.48,17.967 -19.262,17.967c-9.901,0 -17.821,-2.515 -25.742,-6.827l-8.281,17.069c10.801,5.21 22.682,8.265 36.904,8.265Zm-93.25,-64.683c1.44,-8.085 5.94,-13.295 12.781,-13.295c7.021,-0 12.061,5.21 12.962,13.295l-25.743,0Zm15.121,44.559c14.582,0 24.843,-5.929 31.864,-14.913l-14.402,-11.858c-5.22,5.21 -10.081,7.367 -16.382,7.367c-8.1,-0 -13.861,-4.133 -15.841,-12.039l49.325,0c0.18,-1.796 0.18,-3.593 0.18,-5.21c0,-21.561 -11.701,-40.067 -37.084,-40.067c-21.782,-0 -37.084,16.889 -37.084,38.27l0,0.36c-0.18,22.638 16.202,38.09 39.424,38.09Zm-82.448,-0.179c10.801,-0 19.802,-3.414 26.102,-9.703c6.481,-6.288 9.361,-14.733 9.361,-26.771l0,-60.011l-26.282,0l-0,60.011c-0,8.804 -4.141,13.296 -10.802,13.296c-5.94,-0 -10.261,-3.234 -14.941,-8.804l-16.922,15.991c6.841,9.163 16.922,15.991 33.484,15.991Z" style="fill:#d3b67f;fill-rule:nonzero;"/></g></svg>