<?xml version="1.0" encoding="UTF-8" standalone="no"?><!DOCTYPE svg PUBLIC "-//W3C//DTD SVG 1.1//EN" "http://www.w3.org/Graphics/SVG/1.1/DTD/svg11.dtd"><svg width="100%" height="100%" viewBox="0 0 1553 329" version="1.1" xmlns="http://www.w3.org/2000/svg" xmlns:xlink="http://www.w3.org/1999/xlink" xml:space="preserve" xmlns:serif="http://www.serif.com/" style="fill-rule:evenodd;clip-rule:evenodd;stroke-linejoin:round;stroke-miterlimit:2;"><g id="Vrstva-1" serif:id="Vrstva 1"><clipPath id="_clip1"><rect x="4.416" y="12.328" width="1541.67" height="306.542"/></clipPath><g clip-path="url(#_clip1)"><path d="M1396.42,90.203l56.375,0l0,144.459l-56.375,-0l0,-144.459Zm83.333,144.459l0,-144.917l20.584,0c23.416,0 35.111,12.347 35.083,37.042l0,107.875l-55.667,-0Zm-17.666,-154.167l-75,0l-0,162.958l75,0l-0,-163l-0,0.042Zm84.041,47.5c0,-31.667 -15.972,-47.5 -47.916,-47.5l-27.959,0l0,162.958l75.875,0l0,-115.458Zm-292.458,106.417c-21.389,-0 -32.083,-11.611 -32.083,-34.834l-0,-17.083c-0.499,-8.297 2.15,-16.485 7.416,-22.917c5.382,-5.698 13.007,-8.748 20.834,-8.333l28.666,0l0,83.167l-25,-0l0.167,-0Zm-30.875,-113c0.005,-4.569 0.722,-9.11 2.125,-13.459c4.083,-12.444 15.194,-18.68 33.333,-18.708l20.25,0l0,32.125l-55.833,0l0.125,0.042Zm85.458,-31l56.375,-0l0,144l-56.333,-0l0,-143.959l-0.042,-0.041Zm-20.333,51.583l-38.083,0c-10.637,-0.691 -21.02,3.554 -28.125,11.5c-6.753,8.591 -10.186,19.335 -9.667,30.25l0,15.667c0,29.472 14.222,44.208 42.667,44.208l33.333,0l0,-101.583l-0.125,-0.042Zm0,-61.333l-27.625,-0c-17.611,-0 -30.111,4.166 -37.5,12.5c-7.389,8.333 -11.028,20.653 -10.917,36.958l75.834,0l-0,-49.417l0.208,-0.041Zm86.25,-0l-75.417,-0l0,163.041l75.417,0l0,-163.041Zm-328.292,10.416l56.125,0l0,217.375l-56.083,0l0,-217.375l-0.042,0Zm109.167,143.542l-23.333,0l-0,-143.542l25,0c20.472,0 30.708,11.348 30.708,34.042l0,73.958c0,23.695 -10.861,35.556 -32.583,35.584m-43.042,-153.959l-75.583,0l-0,238.167l75.583,0l0,-238.167Zm85.417,45.667c-0,-30.555 -13.889,-45.833 -41.667,-45.833l-34.375,-0l0,162.916l31.917,0c29.416,0 44.125,-15.736 44.125,-47.208l-0,-69.875Zm-289.75,108.333c-12.723,0 -21.806,-2.777 -27.25,-8.333c-5.838,-6.796 -8.721,-15.653 -8,-24.583l55.708,-0l0,32.833l-20.292,0l-0.166,0.083Zm90.958,-3.083c-4.917,2.028 -15.889,3.056 -32.917,3.083l-9.208,0l0,-37.083c0,-6.958 -3.875,-11.583 -11.542,-13.833l-50.625,-14.042c-6.494,-1.408 -12.495,-4.53 -17.375,-9.042c-3.166,-3.583 -4.708,-9.541 -4.708,-17.916l0,-14.542c0,-17.528 4.972,-28.944 14.917,-34.25c6.083,-3.25 17.041,-4.889 32.875,-4.917l6.083,0l0,37.5c-0.383,4.21 1.148,8.375 4.167,11.334c3.569,2.483 7.635,4.16 11.916,4.916l48.084,12.125c15.861,3.889 23.791,13.375 23.791,28.459l0,16.666c0,16.667 -5.139,27.167 -15.416,31.5m-41.167,-109.458l0,-33.042l20.5,0c13.056,0 22.333,2.862 27.833,8.584c5.913,6.737 8.912,15.555 8.334,24.5l-56.542,-0l-0.125,-0.042Zm-21.5,71.083l-72.375,0c0,17.167 3.444,29.667 10.333,37.5c7.5,8.5 19.486,12.75 35.959,12.75l26.083,0l0,-50.25Zm86.917,-13.5c-0,-17.166 -9.014,-28.097 -27.042,-32.791l-44.042,-11.375c-10.666,-2.778 -16,-6.653 -16,-11.625l0,-43.209l-18.291,0c-17.889,0 -30.07,1.737 -36.542,5.209c-11.583,6.333 -17.375,19.014 -17.375,38.041l0,20.542c-0.417,7.685 1.627,15.305 5.833,21.75c4.792,5.885 11.507,9.898 18.959,11.333l47.208,12.292l7.333,2.125l2.084,0.875c2.486,2.289 3.714,5.647 3.291,9l0,41.583l22.167,0c17.611,0 29.5,-1.736 35.667,-5.208c11.277,-6.333 16.916,-19.014 16.916,-38.042l0,-20.5l-0.166,0Zm-9.584,-86.25c-7.416,-8.333 -19.916,-12.5 -37.5,-12.5l-27.583,0l0,50l76.25,0c0,-16.666 -3.722,-29.166 -11.167,-37.5m-246.416,-12.5l-34,0c-27.584,0 -41.375,15.278 -41.375,45.834l-0,69.458c-0,31.472 14.611,47.208 43.833,47.208l31.583,0l0,-162.75l-0.041,0.25Zm83.083,45.834c0,-30.556 -13.792,-45.834 -41.375,-45.834l-34,0l0,162.5l31.542,0c29.25,0 43.861,-15.736 43.833,-47.208l0,-69.875l0,0.417Zm-255.208,-45.834l-75,0l-0,162.5l75,0l-0,-163l-0,0.5Zm84,47.5c-0,-31.666 -15.931,-47.5 -47.792,-47.5l-27.833,0l-0,162.5l75.625,0l-0,-115.458l-0,0.458Zm-255.209,-47.75l-34,0c-27.583,0 -41.361,15.278 -41.333,45.834l0,69.708c-0.028,31.472 14.556,47.208 43.75,47.208l31.583,0l0,-162.75Zm83.084,45.834c-0,-30.556 -13.792,-45.834 -41.375,-45.834l-34,0l-0,162.75l31.541,0c29.223,0 43.834,-15.736 43.834,-47.208l-0,-69.875l-0,0.167Zm-172.125,-17.5c-1.509,-5.703 -4.223,-11.017 -7.959,-15.584c-7.583,-8.583 -20.083,-12.875 -37.5,-12.875l-27.25,0l0,81.625l75,0c0,-30.222 -0.819,-47.986 -2.458,-53.291m-81.125,-28.209l-75.417,0l0,163l75.417,0l0,-163Zm-173,-68.375l-75.625,0l0,231.375l75.625,0l0,-231.375Zm85.375,170.834c0.172,-4.814 -1.481,-9.518 -4.625,-13.167l-14.75,-11.667c5.523,-3.43 10.676,-7.423 15.375,-11.916c2.824,-3.798 4.292,-8.436 4.167,-13.167l-0,-52.542l-75.542,0l0,163l75.375,0l0,-60.541Z" style="fill:#d3b67f;fill-rule:nonzero;"/></g></g></svg>