<?xml version="1.0" encoding="UTF-8" standalone="no"?><!DOCTYPE svg PUBLIC "-//W3C//DTD SVG 1.1//EN" "http://www.w3.org/Graphics/SVG/1.1/DTD/svg11.dtd"><svg width="100%" height="100%" viewBox="0 0 702 287" version="1.1" xmlns="http://www.w3.org/2000/svg" xmlns:xlink="http://www.w3.org/1999/xlink" xml:space="preserve" xmlns:serif="http://www.serif.com/" style="fill-rule:evenodd;clip-rule:evenodd;stroke-linejoin:round;stroke-miterlimit:2;"><g id="Vrstva-1" serif:id="Vrstva 1"><g id="a02d93c8e9"><g><g><path d="M-1.829,16.102l15.946,-0l37.997,79.776l29.659,-79.776l17.45,-0l-0,1.002c-2.859,0 -4.921,0.866 -6.196,2.597c-1.276,1.709 -2.085,4.488 -2.415,8.338c-0.342,3.861 -0.501,9.055 -0.501,15.581l-0,43.92c-0,6.47 0.159,11.652 0.501,15.536c0.33,3.895 1.139,6.697 2.415,8.429c1.275,1.708 3.337,2.551 6.196,2.551l-0,1.002l-26.744,0l0,-1.002c2.848,-0 4.921,-0.843 6.196,-2.551c1.276,-1.732 2.073,-4.534 2.415,-8.429c0.33,-3.884 0.501,-9.066 0.501,-15.536l0,-68.158c-3.554,9.477 -7.085,18.942 -10.57,28.384c-3.497,9.454 -7.062,19.113 -10.706,28.976c-3.623,9.841 -7.472,20.206 -11.573,31.072l-0.865,0c-3.133,-6.652 -6.037,-12.825 -8.702,-18.543c-2.677,-5.706 -5.217,-11.162 -7.609,-16.356c-2.403,-5.216 -4.829,-10.41 -7.289,-15.581c-2.438,-5.194 -4.944,-10.57 -7.518,-16.129c-2.551,-5.581 -5.353,-11.617 -8.383,-18.087l-0.091,42.462l-0,12.575c-0,7.198 0.456,13.144 1.367,17.814c0.934,4.681 2.198,8.337 3.781,10.98c1.572,2.642 3.349,4.499 5.331,5.558c1.97,1.036 4.02,1.549 6.15,1.549l0,1.002l-26.743,0l-0,-1.002c2.847,-0 4.92,-0.843 6.196,-2.551c1.275,-1.732 2.073,-4.534 2.414,-8.429c0.331,-3.884 0.502,-9.066 0.502,-15.536l-0,-43.92c-0,-6.526 -0.171,-11.72 -0.502,-15.581c-0.341,-3.85 -1.139,-6.629 -2.414,-8.338c-1.276,-1.731 -3.349,-2.597 -6.196,-2.597l-0,-1.002Z" style="fill:#d3b67f;fill-rule:nonzero;"/></g></g><g><g><path d="M102.181,17.104l-0,-1.002l27.518,-0l0,1.002l-2.187,0c-1.401,0 -2.642,0.387 -3.736,1.139c-1.07,0.763 -1.594,2.13 -1.594,4.101c-0,1.127 0.433,2.824 1.321,5.102c0.877,2.278 2.073,4.909 3.599,7.882c1.515,2.95 3.19,6.094 5.012,9.431c1.822,3.315 3.622,6.606 5.422,9.887c1.822,3.28 3.53,6.355 5.148,9.203c1.64,2.859 2.938,5.285 3.918,7.289c1.39,-2.574 3.075,-5.706 5.057,-9.385c1.971,-3.702 4.009,-7.608 6.105,-11.709c2.119,-4.1 4.123,-8.064 6.014,-11.891c1.88,-3.827 3.394,-7.199 4.556,-10.114c1.151,-2.939 1.731,-5.069 1.731,-6.379c0,-1.788 -0.58,-2.984 -1.731,-3.599c-1.162,-0.638 -2.437,-0.957 -3.827,-0.957l-2.551,0l-0,-1.002l21.185,-0l0,1.002c-2.528,0 -4.636,0.866 -6.333,2.597c-1.674,1.709 -3.439,4.374 -5.285,8.019c-1.822,3.622 -4.26,8.292 -7.289,14.032c-2.039,3.827 -4.18,7.768 -6.424,11.8c-2.255,4.01 -4.351,7.745 -6.287,11.208c-1.948,3.463 -3.486,6.276 -4.602,8.429l-0,14.351c-0,6.47 0.148,11.652 0.456,15.536c0.33,3.895 1.139,6.697 2.414,8.429c1.299,1.708 3.383,2.551 6.242,2.551l-0,1.002l-26.744,0l0,-1.002c2.848,-0 4.921,-0.843 6.196,-2.551c1.276,-1.732 2.073,-4.534 2.415,-8.429c0.33,-3.884 0.501,-9.066 0.501,-15.536l0,-14.351c-1.127,-2.153 -2.665,-4.966 -4.601,-8.429c-1.948,-3.463 -4.044,-7.198 -6.288,-11.208c-2.255,-4.032 -4.396,-7.973 -6.424,-11.8c-2.984,-5.74 -5.41,-10.41 -7.289,-14.032c-1.891,-3.645 -3.668,-6.31 -5.331,-8.019c-1.674,-1.731 -3.77,-2.597 -6.287,-2.597Z" style="fill:#d3b67f;fill-rule:nonzero;"/></g></g><g><g><path d="M223.685,39.839c-0,-4.613 1.367,-8.862 4.1,-12.757c2.757,-3.884 6.766,-7.016 12.028,-9.386c5.285,-2.369 11.72,-3.553 19.317,-3.553c6.071,-0 11.322,0.433 15.764,1.275c4.465,0.855 8.611,1.937 12.438,3.235l0,13.304l-1.002,-0c-0,-0 -0.274,-0.558 -0.82,-1.686c-0.524,-1.116 -1.401,-2.506 -2.643,-4.146c-1.253,-1.663 -2.916,-3.326 -5.011,-4.966c-2.073,-1.663 -4.648,-3.052 -7.746,-4.146c-3.098,-1.116 -6.765,-1.686 -10.98,-1.686c-6.139,0 -11.333,1.094 -15.581,3.281c-4.26,2.164 -7.472,4.92 -9.659,8.292c-2.187,3.371 -3.28,6.902 -3.28,10.57c-0,3.371 0.865,6.241 2.597,8.61c1.754,2.37 4.146,4.42 7.153,6.151c3.007,1.708 6.344,3.223 10.023,4.556c3.702,1.31 7.529,2.631 11.481,3.964c3.975,1.31 7.802,2.733 11.481,4.282c3.702,1.549 7.062,3.417 10.069,5.604c3.007,2.164 5.376,4.773 7.107,7.837c1.754,3.075 2.643,6.788 2.643,11.162c-0,3.44 -0.866,6.788 -2.597,10.069c-1.709,3.257 -4.18,6.184 -7.426,8.793c-3.224,2.585 -7.108,4.647 -11.664,6.196c-4.533,1.549 -9.659,2.323 -15.399,2.323c-4.374,0 -8.543,-0.626 -12.484,-1.868c-3.952,-1.241 -7.585,-2.802 -10.888,-4.692c-3.315,-1.88 -6.185,-3.713 -8.611,-5.513l-0,-13.258l1.002,-0c0,-0 0.501,0.809 1.504,2.415c1.025,1.583 2.551,3.542 4.556,5.877c2.027,2.346 4.51,4.681 7.426,7.016c2.938,2.347 6.344,4.306 10.205,5.877c3.85,1.584 8.121,2.37 12.803,2.37c3.644,-0 7.027,-0.593 10.16,-1.777c3.12,-1.185 5.854,-2.791 8.2,-4.83c2.335,-2.061 4.158,-4.373 5.468,-6.925c1.332,-2.574 2.004,-5.251 2.004,-8.018c0,-3.702 -0.9,-6.891 -2.688,-9.568c-1.765,-2.665 -4.169,-4.966 -7.198,-6.88c-3.041,-1.913 -6.458,-3.622 -10.251,-5.148c-3.805,-1.515 -7.723,-2.961 -11.755,-4.328c-4.009,-1.39 -7.916,-2.882 -11.709,-4.465c-3.804,-1.572 -7.221,-3.394 -10.251,-5.467c-3.007,-2.096 -5.41,-4.602 -7.198,-7.518c-1.8,-2.938 -2.688,-6.435 -2.688,-10.478Z" style="fill:#d3b67f;fill-rule:nonzero;"/></g></g><g><g><path d="M302.065,17.104l0,-1.002l70.846,-0l0,13.349l-0.957,-0l0,-0.365c0,-3.303 -3.132,-6.127 -9.385,-8.474c-6.23,-2.335 -15.057,-3.508 -26.47,-3.508l-16.402,0l0,42.553c1.515,-1.458 3.246,-2.574 5.194,-3.371c1.936,-0.786 4.032,-1.185 6.287,-1.185c2.426,0 4.647,0.319 6.652,0.957c2.027,0.615 3.941,1.31 5.741,2.096c1.822,0.797 3.656,1.503 5.512,2.141c1.846,0.615 3.85,0.911 6.014,0.911c1.914,0 3.611,-0.501 5.103,-1.503c1.481,-1.025 2.232,-2.392 2.232,-4.101l1.003,0c-0,2.893 -1.139,5.422 -3.417,7.609c-2.278,2.187 -5.365,3.28 -9.249,3.28c-3.041,0 -5.684,-0.421 -7.927,-1.275c-2.256,-0.877 -4.272,-1.88 -6.06,-3.007c-1.765,-1.117 -3.462,-2.119 -5.103,-3.007c-1.617,-0.877 -3.303,-1.367 -5.057,-1.458c-1.458,-0.057 -2.779,0.25 -3.963,0.911c-1.185,0.672 -2.176,1.526 -2.962,2.551l0,52.85l12.666,-0c1.572,-0 3.622,-0.046 6.15,-0.137c2.552,-0.091 5.308,-0.296 8.292,-0.638c2.973,-0.33 5.923,-0.842 8.839,-1.549c2.939,-0.694 5.649,-1.594 8.11,-2.688c2.483,-1.116 4.476,-2.517 5.968,-4.191c1.481,-1.697 2.232,-3.736 2.232,-6.105l0.957,-0l0,16.31l-70.846,0l0,-1.002c2.848,-0 4.921,-0.843 6.197,-2.551c1.275,-1.732 2.073,-4.534 2.414,-8.429c0.331,-3.884 0.501,-9.066 0.501,-15.536l0,-43.92c0,-6.526 -0.17,-11.72 -0.501,-15.581c-0.341,-3.85 -1.139,-6.629 -2.414,-8.338c-1.276,-1.731 -3.349,-2.597 -6.197,-2.597Z" style="fill:#d3b67f;fill-rule:nonzero;"/></g></g><g><g><path d="M425.873,117.017c-6.139,0 -11.879,-1.264 -17.221,-3.781c-5.354,-2.551 -10.046,-6.151 -14.078,-10.798c-4.01,-4.647 -7.142,-10.091 -9.386,-16.356c-2.255,-6.287 -3.371,-13.121 -3.371,-20.502c-0,-7.438 1.116,-14.272 3.371,-20.502c2.244,-6.253 5.376,-11.709 9.386,-16.356c4.032,-4.647 8.724,-8.224 14.078,-10.752c5.342,-2.552 11.082,-3.827 17.221,-3.827c5.673,-0 10.456,0.638 14.352,1.913c3.884,1.276 6.993,2.962 9.34,5.057c2.335,2.073 4.032,4.329 5.102,6.789c1.06,2.437 1.595,4.772 1.595,7.016c-0,3.44 -0.683,6.538 -2.05,9.294c-1.344,2.768 -3.076,5.274 -5.194,7.518c-2.096,2.255 -4.362,4.351 -6.789,6.287c-2.403,1.948 -4.669,3.816 -6.788,5.604c-2.096,1.765 -3.827,3.542 -5.194,5.331c-1.344,1.765 -2.004,3.644 -2.004,5.649c-0,1.526 0.239,2.768 0.729,3.736c0.512,0.945 1.252,1.845 2.232,2.688c-1.765,0.399 -3.303,0.137 -4.602,-0.775c-1.275,-0.934 -2.266,-2.198 -2.961,-3.781c-0.706,-1.572 -1.048,-3.121 -1.048,-4.647c0,-2.916 0.661,-5.536 2.005,-7.882c1.367,-2.335 3.098,-4.488 5.194,-6.47c2.118,-1.97 4.351,-3.849 6.697,-5.649c2.335,-1.788 4.556,-3.577 6.652,-5.376c2.118,-1.823 3.872,-3.736 5.239,-5.741c1.367,-2.027 2.05,-4.237 2.05,-6.606c0,-5.854 -2.039,-10.445 -6.105,-13.759c-4.077,-3.337 -10.228,-5.012 -18.452,-5.012c-5.171,0 -9.886,1.265 -14.169,3.782c-4.282,2.494 -7.996,6.002 -11.116,10.524c-3.133,4.499 -5.559,9.796 -7.29,15.901c-1.709,6.105 -2.551,12.791 -2.551,20.046c-0,7.199 0.911,13.873 2.733,20.001c1.845,6.139 4.385,11.47 7.609,15.992c3.246,4.499 6.993,8.007 11.253,10.524c4.249,2.494 8.759,3.736 13.531,3.736c4.397,-0 8.178,-0.547 11.345,-1.64c3.189,-1.117 5.854,-2.506 8.018,-4.146c2.187,-1.663 3.919,-3.326 5.194,-4.966c1.299,-1.663 2.233,-3.064 2.779,-4.192c0.57,-1.116 0.866,-1.686 0.866,-1.686l1.094,0l-0,13.304c-3.987,1.253 -8.281,2.312 -12.894,3.189c-4.624,0.877 -10.092,1.321 -16.402,1.321Z" style="fill:#d3b67f;fill-rule:nonzero;"/></g></g><g><g><path d="M461.187,115.058l0,-1.002c2.848,-0 4.921,-0.843 6.196,-2.551c1.276,-1.732 2.073,-4.534 2.415,-8.429c0.33,-3.884 0.501,-9.066 0.501,-15.536l0,-43.92c0,-6.526 -0.171,-11.72 -0.501,-15.581c-0.342,-3.85 -1.139,-6.629 -2.415,-8.338c-1.275,-1.731 -3.348,-2.597 -6.196,-2.597l0,-1.002l11.891,-0c3.611,-0 6.925,-0.16 9.932,-0.501c3.007,-0.331 6.037,-0.65 9.112,-0.957c3.064,-0.33 6.515,-0.501 10.342,-0.501c7.04,-0 13.008,1.207 17.906,3.599c4.886,2.403 8.588,5.684 11.116,9.841c2.552,4.169 3.827,8.953 3.827,14.351c0,4.499 -1.173,8.725 -3.508,12.666c-2.346,3.952 -5.626,7.142 -9.841,9.568c-4.226,2.403 -9.203,3.599 -14.944,3.599c-2.312,-0 -4.464,-0.296 -6.469,-0.911c-1.982,-0.638 -3.77,-1.378 -5.376,-2.233c-1.617,-0.877 -3.087,-1.617 -4.419,-2.232c-1.31,-0.638 -2.495,-0.957 -3.554,-0.957c-0.581,0 -1.207,0.16 -1.868,0.456c-0.672,0.273 -1.002,0.979 -1.002,2.095c-0,1.276 0.729,2.415 2.186,3.417c1.458,0.98 3.338,1.96 5.65,2.962c2.301,0.979 4.784,2.05 7.426,3.235c2.643,1.184 5.171,2.642 7.609,4.373c2.46,1.709 4.476,3.816 6.059,6.333c1.971,3.007 4.01,6.242 6.105,9.705c2.119,3.462 4.351,6.72 6.698,9.749c2.335,3.042 4.783,5.513 7.335,7.427c2.574,1.913 5.296,2.87 8.155,2.87l0,1.002l-15.126,0c-1.128,0 -2.232,-0.455 -3.326,-1.367c-1.093,-0.933 -2.437,-2.505 -4.009,-4.692c-1.583,-2.21 -3.622,-5.24 -6.105,-9.067c-2.46,-3.827 -5.638,-8.679 -9.522,-14.579c-2.403,-3.61 -4.784,-6.469 -7.153,-8.565c-2.369,-2.119 -4.533,-3.827 -6.47,-5.103c-1.947,-1.298 -3.508,-2.528 -4.692,-3.69c-1.185,-1.151 -1.777,-2.552 -1.777,-4.192c-0,-1.184 0.342,-2.027 1.048,-2.551c0.729,-0.547 1.526,-0.82 2.414,-0.82c1.424,-0 2.837,0.296 4.237,0.865c1.39,0.547 2.825,1.208 4.283,1.96c1.481,0.763 3.121,1.435 4.921,2.004c1.788,0.547 3.838,0.82 6.15,0.82c3.098,0 5.889,-0.683 8.383,-2.05c2.517,-1.39 4.659,-3.235 6.424,-5.513c1.788,-2.278 3.155,-4.84 4.101,-7.699c0.968,-2.882 1.458,-5.809 1.458,-8.793c-0,-5.468 -1.231,-10.172 -3.691,-14.124c-2.437,-3.975 -5.9,-7.028 -10.387,-9.158c-4.465,-2.152 -9.773,-3.234 -15.901,-3.234c-3.622,-0 -6.777,0.262 -9.476,0.774c-2.711,0.49 -5.582,1.276 -8.611,2.369l-0,68.887c-0,6.47 0.148,11.652 0.455,15.536c0.331,3.895 1.139,6.697 2.415,8.429c1.298,1.708 3.371,2.551 6.196,2.551l0,1.002l-26.607,0Z" style="fill:#d3b67f;fill-rule:nonzero;"/></g></g><g><g><path d="M547.477,17.104l-0,-1.002l70.846,-0l-0,13.349l-0.957,-0l0,-0.365c0,-3.303 -3.132,-6.127 -9.385,-8.474c-6.231,-2.335 -15.058,-3.508 -26.471,-3.508l-16.401,0l-0,42.553c1.515,-1.458 3.246,-2.574 5.194,-3.371c1.936,-0.786 4.032,-1.185 6.287,-1.185c2.426,0 4.647,0.319 6.652,0.957c2.027,0.615 3.941,1.31 5.74,2.096c1.823,0.797 3.656,1.503 5.513,2.141c1.845,0.615 3.85,0.911 6.014,0.911c1.913,0 3.61,-0.501 5.103,-1.503c1.48,-1.025 2.232,-2.392 2.232,-4.101l1.002,0c0,2.893 -1.139,5.422 -3.417,7.609c-2.278,2.187 -5.364,3.28 -9.248,3.28c-3.041,0 -5.684,-0.421 -7.928,-1.275c-2.255,-0.877 -4.271,-1.88 -6.059,-3.007c-1.766,-1.117 -3.463,-2.119 -5.103,-3.007c-1.617,-0.877 -3.303,-1.367 -5.057,-1.458c-1.458,-0.057 -2.779,0.25 -3.964,0.911c-1.184,0.672 -2.175,1.526 -2.961,2.551l-0,52.85l12.665,-0c1.572,-0 3.622,-0.046 6.151,-0.137c2.551,-0.091 5.308,-0.296 8.292,-0.638c2.973,-0.33 5.923,-0.842 8.839,-1.549c2.938,-0.694 5.649,-1.594 8.109,-2.688c2.483,-1.116 4.477,-2.517 5.969,-4.191c1.48,-1.697 2.232,-3.736 2.232,-6.105l0.957,-0l-0,16.31l-70.846,0l-0,-1.002c2.847,-0 4.92,-0.843 6.196,-2.551c1.276,-1.732 2.073,-4.534 2.415,-8.429c0.33,-3.884 0.501,-9.066 0.501,-15.536l-0,-43.92c-0,-6.526 -0.171,-11.72 -0.501,-15.581c-0.342,-3.85 -1.139,-6.629 -2.415,-8.338c-1.276,-1.731 -3.349,-2.597 -6.196,-2.597Z" style="fill:#d3b67f;fill-rule:nonzero;"/></g></g><g><g><path d="M624.267,16.102l69.16,-0l0,13.349l-0.957,-0c0,-0.114 0.012,-0.159 0.046,-0.137c0.023,0.034 0.046,-0.045 0.046,-0.228c-0,-2.243 -1.276,-4.259 -3.827,-6.059c-2.529,-1.788 -6.014,-3.212 -10.479,-4.283c-4.465,-1.093 -9.522,-1.64 -15.172,-1.64l0,70.436c0,6.47 0.091,11.652 0.274,15.536c0.205,3.895 0.888,6.697 2.05,8.429c1.15,1.708 3.143,2.551 5.968,2.551l0,1.002l-25.832,0l-0,-1.002c2.847,-0 4.92,-0.843 6.196,-2.551c1.275,-1.732 2.073,-4.534 2.414,-8.429c0.331,-3.884 0.502,-9.066 0.502,-15.536l-0,-70.436c-5.684,0 -10.753,0.547 -15.217,1.64c-4.443,1.071 -7.928,2.495 -10.479,4.283c-2.529,1.8 -3.782,3.816 -3.782,6.059c0,0.183 0.012,0.262 0.046,0.228c0.023,-0.022 0.045,0.023 0.045,0.137l-1.002,-0l0,-13.349Z" style="fill:#d3b67f;fill-rule:nonzero;"/></g></g><g><g><path d="M228.968,270.445l5.285,-12.848l1.503,0l5.285,12.848l-1.686,0l-1.23,-2.916l-6.242,0l-1.184,2.916l-1.731,0Zm3.508,-4.419l5.057,-0l-2.552,-6.196l-2.505,6.196Z" style="fill:#d3b67f;fill-rule:nonzero;"/></g></g><g><g><path d="M244.541,270.445l0,-12.848l1.549,0l7.108,10.069l-0,-10.069l1.549,0l-0,12.848l-1.504,0l-7.107,-10.068l-0,10.068l-1.595,0Z" style="fill:#d3b67f;fill-rule:nonzero;"/></g></g><g><g><path d="M259.814,270.445l-0,-12.848l1.549,0l7.107,10.069l0,-10.069l1.549,0l0,12.848l-1.503,0l-7.107,-10.068l-0,10.068l-1.595,0Z" style="fill:#d3b67f;fill-rule:nonzero;"/></g></g><g><g><path d="M275.087,270.445l-0,-12.848l7.79,0l0,1.504l-6.15,-0l-0,4.055l5.695,-0l-0,1.503l-5.695,0l-0,4.283l6.378,-0l0,1.503l-8.018,0Z" style="fill:#d3b67f;fill-rule:nonzero;"/></g></g><g><g><rect x="287.022" y="265.069" width="5.604" height="1.458" style="fill:#d3b67f;fill-rule:nonzero;"/></g></g><g><g><path d="M297.225,270.445l-0,-12.848l1.503,0l5.058,7.609l5.011,-7.609l1.504,0l-0,12.848l-1.595,0l0,-9.841l-4.283,6.424l-1.321,0l-4.237,-6.424l0,9.841l-1.64,0Z" style="fill:#d3b67f;fill-rule:nonzero;"/></g></g><g><g><path d="M313.812,270.445l5.285,-12.848l1.504,0l5.285,12.848l-1.686,0l-1.23,-2.916l-6.242,0l-1.184,2.916l-1.732,0Zm3.508,-4.419l5.058,-0l-2.552,-6.196l-2.506,6.196Z" style="fill:#d3b67f;fill-rule:nonzero;"/></g></g><g><g><path d="M329.386,270.445l-0,-12.848l4.92,0c0.877,0 1.652,0.171 2.324,0.502c0.661,0.341 1.184,0.808 1.549,1.412c0.364,0.615 0.547,1.355 0.547,2.232c-0,1.037 -0.274,1.902 -0.82,2.597c-0.547,0.672 -1.299,1.116 -2.233,1.321l3.235,4.784l-1.914,0l-3.143,-4.601l-2.825,-0l0,4.601l-1.64,0Zm1.64,-6.15l3.098,-0c0.934,-0 1.663,-0.205 2.187,-0.638c0.513,-0.456 0.775,-1.094 0.775,-1.914c-0,-0.82 -0.262,-1.458 -0.775,-1.913c-0.524,-0.456 -1.253,-0.684 -2.187,-0.684l-3.098,0l0,5.149Z" style="fill:#d3b67f;fill-rule:nonzero;"/></g></g><g><g><rect x="343.208" y="257.597" width="1.64" height="12.848" style="fill:#d3b67f;fill-rule:nonzero;"/></g></g><g><g><path d="M349.89,270.445l0,-12.848l7.791,0l0,1.504l-6.151,-0l0,4.055l5.695,-0l0,1.503l-5.695,0l0,4.283l6.379,-0l-0,1.503l-8.019,0Z" style="fill:#d3b67f;fill-rule:nonzero;"/></g></g><g><g><path d="M371.709,270.445l-5.103,-12.848l1.731,0l2.096,5.422l2.05,5.103l2.005,-5.103l2.141,-5.422l1.686,0l-5.103,12.848l-1.503,0Z" style="fill:#d3b67f;fill-rule:nonzero;"/></g></g><g><g><path d="M387.663,270.673c-1.276,0 -2.438,-0.273 -3.463,-0.82c-1.002,-0.569 -1.8,-1.367 -2.369,-2.369c-0.547,-1.002 -0.82,-2.153 -0.82,-3.463c-0,-1.298 0.273,-2.46 0.82,-3.462c0.569,-1.003 1.367,-1.777 2.369,-2.324c1.025,-0.569 2.187,-0.865 3.463,-0.865c1.298,-0 2.46,0.296 3.462,0.865c1.003,0.547 1.788,1.321 2.369,2.324c0.57,1.002 0.866,2.164 0.866,3.462c0,1.31 -0.296,2.461 -0.866,3.463c-0.581,1.002 -1.366,1.8 -2.369,2.369c-1.002,0.547 -2.164,0.82 -3.462,0.82Zm-4.966,-6.652c-0,1.003 0.193,1.891 0.592,2.643c0.421,0.763 1.014,1.355 1.777,1.777c0.751,0.432 1.617,0.637 2.597,0.637c1.002,0 1.868,-0.205 2.597,-0.637c0.751,-0.422 1.344,-1.014 1.776,-1.777c0.422,-0.752 0.638,-1.64 0.638,-2.643c0,-1.002 -0.216,-1.879 -0.638,-2.642c-0.432,-0.752 -1.025,-1.344 -1.776,-1.777c-0.729,-0.421 -1.595,-0.638 -2.597,-0.638c-0.98,0 -1.846,0.217 -2.597,0.638c-0.763,0.433 -1.356,1.025 -1.777,1.777c-0.399,0.763 -0.592,1.64 -0.592,2.642Z" style="fill:#d3b67f;fill-rule:nonzero;"/></g></g><g><g><path d="M398.572,270.445l0,-12.848l1.64,0l0,11.299l6.242,0l0,1.549l-7.882,0Z" style="fill:#d3b67f;fill-rule:nonzero;"/></g></g><g><g><path d="M410.192,270.445l0,-12.848l7.381,0l-0,1.504l-5.741,-0l0,4.419l5.24,0l-0,1.504l-5.24,-0l0,5.421l-1.64,0Z" style="fill:#d3b67f;fill-rule:nonzero;"/></g></g><g><g><path d="M427.589,270.673c-1.276,0 -2.438,-0.273 -3.463,-0.82c-1.002,-0.569 -1.8,-1.367 -2.369,-2.369c-0.547,-1.002 -0.82,-2.153 -0.82,-3.463c-0,-1.298 0.273,-2.46 0.82,-3.462c0.569,-1.003 1.367,-1.777 2.369,-2.324c1.025,-0.569 2.187,-0.865 3.463,-0.865c1.298,-0 2.46,0.296 3.462,0.865c1.002,0.547 1.788,1.321 2.369,2.324c0.57,1.002 0.866,2.164 0.866,3.462c-0,1.31 -0.296,2.461 -0.866,3.463c-0.581,1.002 -1.367,1.8 -2.369,2.369c-1.002,0.547 -2.164,0.82 -3.462,0.82Zm-4.967,-6.652c0,1.003 0.194,1.891 0.593,2.643c0.421,0.763 1.013,1.355 1.777,1.777c0.751,0.432 1.617,0.637 2.597,0.637c1.002,0 1.867,-0.205 2.596,-0.637c0.752,-0.422 1.344,-1.014 1.777,-1.777c0.422,-0.752 0.638,-1.64 0.638,-2.643c0,-1.002 -0.216,-1.879 -0.638,-2.642c-0.433,-0.752 -1.025,-1.344 -1.777,-1.777c-0.729,-0.421 -1.594,-0.638 -2.596,-0.638c-0.98,0 -1.846,0.217 -2.597,0.638c-0.764,0.433 -1.356,1.025 -1.777,1.777c-0.399,0.763 -0.593,1.64 -0.593,2.642Z" style="fill:#d3b67f;fill-rule:nonzero;"/></g></g><g><g><path d="M442.052,270.445l-5.103,-12.848l1.731,0l2.096,5.422l2.05,5.103l2.005,-5.103l2.141,-5.422l1.686,0l-5.103,12.848l-1.503,0Z" style="fill:#d3b67f;fill-rule:nonzero;"/></g></g><g><g><path d="M450.625,270.445l5.285,-12.848l1.503,0l5.285,12.848l-1.685,0l-1.231,-2.916l-6.241,0l-1.185,2.916l-1.731,0Zm3.508,-4.419l5.057,-0l-2.551,-6.196l-2.506,6.196Zm1.731,-9.704l1.185,-2.552l1.686,0l-1.413,2.552l-1.458,-0Z" style="fill:#d3b67f;fill-rule:nonzero;"/></g></g><g><g><path d="M149.867,178.783c1.845,-2.209 3.155,-3.792 3.918,-4.738c0.751,-0.934 1.526,-1.936 2.323,-3.007c0.729,-3.007 1.834,-5.604 3.326,-7.79c1.515,-2.187 3.03,-3.281 4.556,-3.281c0.729,0 1.094,0.365 1.094,1.094c-0,0.888 -0.661,2.175 -1.959,3.872c-1.276,1.675 -3.349,3.85 -6.197,6.515c-0.273,1.344 -0.41,2.495 -0.41,3.463c0,0.888 0.046,1.663 0.137,2.323c0.091,0.672 0.239,1.413 0.456,2.233c0.239,0.797 0.569,1.765 1.002,2.916c0.456,1.162 1.071,2.676 1.868,4.556c0.729,1.526 1.196,2.813 1.412,3.872c0.205,1.071 0.319,2.085 0.319,3.053c0,1.948 -0.524,3.804 -1.549,5.558c-1.002,1.731 -2.369,3.269 -4.1,4.602c-1.732,1.31 -3.782,2.346 -6.151,3.098c-2.346,0.752 -4.806,1.139 -7.381,1.139c-2.95,-0 -5.319,-0.82 -7.107,-2.46c-1.765,-1.641 -2.642,-3.884 -2.642,-6.743c-0,-1.606 0.33,-3.246 1.002,-4.921c0.661,-1.697 1.503,-3.235 2.506,-4.601c1.025,-1.39 2.164,-2.506 3.417,-3.326c1.241,-0.843 2.483,-1.276 3.736,-1.276c0.455,0 0.865,0.091 1.23,0.273l5.194,-6.424Zm-4.42,6.789c0.82,0.729 1.23,1.583 1.23,2.551c0,2.586 -2.095,4.317 -6.287,5.194c-1.8,0.456 -3.303,1.401 -4.51,2.825c-1.185,1.435 -1.777,2.938 -1.777,4.51c-0,1.8 0.615,3.269 1.868,4.42c1.241,1.161 2.802,1.731 4.692,1.731c1.846,-0 3.691,-0.57 5.513,-1.731c1.823,-1.151 3.463,-2.688 4.921,-4.602c1.48,-1.913 2.665,-4.066 3.553,-6.469c0.877,-2.392 1.322,-4.796 1.322,-7.199l-0,-1.822c-0,-0.661 -0.035,-1.344 -0.091,-2.051c-0.092,-1.241 -0.137,-2.289 -0.137,-3.143l-0,-4.784c-0,-0.661 0.068,-1.481 0.228,-2.46c-2.313,2.824 -4.237,5.239 -5.786,7.244c-1.55,2.004 -3.133,3.941 -4.739,5.786Z" style="fill:#d3b67f;fill-rule:nonzero;"/></g></g><g><g><path d="M189.592,196.142c-2.734,3.918 -5.49,6.925 -8.247,9.021c-2.768,2.061 -5.399,3.098 -7.882,3.098c-2.585,-0 -4.818,-1.071 -6.697,-3.189c-1.857,-2.119 -2.779,-4.704 -2.779,-7.746c-0,-6.742 4.396,-13.178 13.212,-19.317c2.939,-2.153 5.718,-3.782 8.338,-4.875c2.608,-1.116 4.897,-1.686 6.879,-1.686c1.754,0 3.121,0.536 4.101,1.595c1.002,1.071 1.503,2.54 1.503,4.419c0,2.221 -0.752,5 -2.232,8.338c-1.458,3.348 -3.349,6.56 -5.65,9.658c0.877,0.547 1.846,0.821 2.916,0.821c1.971,-0 4.249,-0.912 6.834,-2.734c2.574,-1.822 4.704,-4.021 6.379,-6.606c0.546,-0.638 0.911,-0.957 1.093,-0.957c0.182,-0 0.273,0.091 0.273,0.273c0,0.274 -0.41,0.946 -1.23,2.005c-0.797,1.071 -1.674,2.039 -2.642,2.916c-3.736,3.827 -7.267,5.74 -10.57,5.74c-1.344,0 -2.54,-0.25 -3.599,-0.774Zm6.424,-13.486c0.694,-1.515 1.047,-3.201 1.047,-5.057c0,-3.554 -1.594,-5.331 -4.783,-5.331c-1.948,0 -4.237,1.117 -6.88,3.326c-2.62,2.221 -5.125,4.909 -7.517,8.064c-2.404,3.167 -4.442,6.47 -6.105,9.932c-1.641,3.463 -2.461,6.493 -2.461,9.067c0,1.344 0.388,2.437 1.185,3.28c0.82,0.855 1.845,1.276 3.098,1.276c2.301,-0 4.761,-1.002 7.381,-3.007c2.642,-2.005 5.296,-4.875 7.973,-8.611c-1.253,-1.332 -1.868,-2.756 -1.868,-4.283c-0,-1.059 0.239,-2.164 0.729,-3.325c0.478,-1.151 1.07,-2.233 1.777,-3.235c0.729,-1.025 1.526,-1.845 2.414,-2.46c0.877,-0.638 1.732,-0.957 2.552,-0.957c0.694,-0 1.184,0.444 1.458,1.321Z" style="fill:#d3b67f;fill-rule:nonzero;"/></g></g><g><g><path d="M229.369,171.448c1.515,0 2.688,0.524 3.508,1.549c0.843,1.003 1.275,2.404 1.275,4.192c0,1.526 -0.296,3.087 -0.865,4.693c-0.581,1.583 -1.31,3.029 -2.187,4.328c-0.888,1.275 -1.868,2.346 -2.961,3.189c-1.071,0.854 -2.085,1.276 -3.053,1.276c-0.797,-0 -1.481,-0.251 -2.05,-0.775c-0.581,-0.547 -0.866,-1.276 -0.866,-2.187c0,-1.332 0.41,-2.437 1.23,-3.326c0.843,-0.877 2.426,-1.89 4.739,-3.052c3.12,-1.515 4.692,-3.52 4.692,-6.014c0,-0.877 -0.296,-1.572 -0.865,-2.096c-0.581,-0.547 -1.356,-0.82 -2.324,-0.82c-1.8,0 -3.918,1.048 -6.378,3.144c-2.438,2.073 -4.761,4.59 -6.971,7.563c-2.221,2.984 -4.089,6.139 -5.604,9.476c-1.526,3.349 -2.278,6.219 -2.278,8.611c0,1.891 0.501,3.394 1.504,4.51c1.025,1.094 2.437,1.641 4.237,1.641c1.423,-0 3.098,-0.49 5.011,-1.458c1.914,-1.003 3.93,-2.381 6.06,-4.146c2.118,-1.788 4.328,-3.93 6.606,-6.424c2.278,-2.483 4.522,-5.24 6.743,-8.247c0.421,-0.729 0.82,-1.093 1.184,-1.093c0.183,-0 0.274,0.137 0.274,0.41c-0,0.091 -0.296,0.524 -0.866,1.276c-0.581,0.763 -1.321,1.674 -2.232,2.733c-0.889,1.071 -1.857,2.221 -2.916,3.463c-1.071,1.253 -2.13,2.403 -3.189,3.462c-3.645,4.01 -6.766,6.834 -9.34,8.475c-2.586,1.64 -5.171,2.46 -7.745,2.46c-1.527,-0 -2.95,-0.319 -4.283,-0.957c-1.31,-0.604 -2.483,-1.435 -3.508,-2.506c-1.037,-1.059 -1.845,-2.301 -2.415,-3.736c-0.581,-1.423 -0.866,-2.927 -0.866,-4.51c0,-3.736 1.458,-7.529 4.374,-11.39c2.939,-3.884 6.948,-7.256 12.028,-10.114c2.062,-1.151 3.975,-2.028 5.741,-2.643c1.788,-0.638 3.303,-0.957 4.556,-0.957Z" style="fill:#d3b67f;fill-rule:nonzero;"/></g></g><g><g><path d="M240.965,196.279c-2.13,3.371 -3.189,6.082 -3.189,8.109c0,1.982 1.014,2.962 3.053,2.962c2.027,-0 4.692,-1.686 7.973,-5.058c3.303,-3.394 7.449,-8.61 12.437,-15.627c0.183,-0.455 0.411,-0.683 0.684,-0.683c0.239,-0 0.364,0.137 0.364,0.41c0,0.182 -0.216,0.535 -0.637,1.048l-2.825,3.872c-4.351,6.049 -7.962,10.388 -10.843,13.031c-2.894,2.608 -5.502,3.918 -7.837,3.918c-2.039,-0 -3.759,-0.706 -5.148,-2.096c-1.367,-1.424 -2.05,-3.257 -2.05,-5.513c-0,-1.48 0.296,-3.052 0.911,-4.692c0.638,-1.663 1.845,-3.919 3.645,-6.743l10.114,-17.222c0.729,0.182 1.287,0.308 1.686,0.365c0.387,0.034 0.911,0.045 1.549,0.045c0.877,0 1.651,-0.011 2.323,-0.045c0.661,-0.057 1.527,-0.183 2.597,-0.365l-14.807,24.284Zm17.586,-39.638c0.821,0 1.481,0.274 2.005,0.82c0.547,0.524 0.82,1.185 0.82,2.005c0,1.492 -0.66,2.904 -1.959,4.237c-1.276,1.344 -2.677,2.005 -4.191,2.005c-1.948,-0 -2.916,-0.968 -2.916,-2.916c-0,-1.515 0.66,-2.916 2.004,-4.192c1.333,-1.298 2.745,-1.959 4.237,-1.959Z" style="fill:#d3b67f;fill-rule:nonzero;"/></g></g><g><g><path d="M294.037,171.995c0.729,0.182 1.298,0.308 1.731,0.365c0.456,0.034 1.048,0.045 1.777,0.045c0.786,0 1.481,-0.011 2.096,-0.045c0.638,-0.057 1.435,-0.183 2.415,-0.365l-11.482,19.044c-1.947,3.315 -3.439,6.105 -4.464,8.383c-1.037,2.255 -1.549,3.861 -1.549,4.83c-0,2.073 0.842,3.098 2.551,3.098c0.877,-0 2.027,-0.536 3.462,-1.595c1.424,-1.093 3.053,-2.563 4.875,-4.419c1.823,-1.88 3.736,-4.067 5.741,-6.561c2.005,-2.483 3.975,-5.194 5.923,-8.11c0.182,-0.455 0.41,-0.683 0.683,-0.683c0.274,-0 0.41,0.137 0.41,0.41c0,0.091 -0.342,0.626 -1.002,1.595c-0.672,0.979 -1.504,2.118 -2.506,3.417c-0.979,1.275 -2.027,2.631 -3.144,4.054c-1.093,1.436 -2.038,2.632 -2.824,3.6c-2.859,3.371 -5.194,5.763 -7.017,7.153c-1.822,1.366 -3.542,2.05 -5.148,2.05c-2.039,-0 -3.679,-0.729 -4.92,-2.187c-1.253,-1.458 -1.868,-3.349 -1.868,-5.695c-0,-1.299 0.148,-2.517 0.455,-3.645c0.331,-1.116 0.889,-2.426 1.686,-3.918c-2.221,3.098 -4.135,5.638 -5.741,7.609c-1.617,1.947 -3.075,3.53 -4.373,4.738c-1.276,1.184 -2.438,1.982 -3.463,2.414c-1.002,0.456 -2.039,0.684 -3.098,0.684c-2.312,-0 -4.26,-0.98 -5.832,-2.916c-1.549,-1.97 -2.323,-4.465 -2.323,-7.472c-0,-4.009 1.503,-7.927 4.51,-11.754c3.03,-3.827 7.404,-7.29 13.122,-10.388c5.25,-2.848 9.43,-4.283 12.529,-4.283c2.665,0 4.009,1.299 4.009,3.873c-0,0.797 -0.182,1.765 -0.547,2.916l3.326,-6.242Zm-6.652,0.41c-1.344,0 -2.904,0.535 -4.692,1.595c-1.766,1.07 -3.588,2.46 -5.468,4.191c-1.856,1.731 -3.724,3.713 -5.604,5.923c-1.856,2.221 -3.496,4.465 -4.92,6.743c-1.435,2.278 -2.586,4.488 -3.463,6.606c-0.888,2.13 -1.321,3.998 -1.321,5.604c0,2.859 1.242,4.283 3.736,4.283c0.877,-0 1.777,-0.251 2.688,-0.729c0.934,-0.479 2.028,-1.333 3.28,-2.552c1.242,-1.207 2.643,-2.745 4.192,-4.601c1.572,-1.88 3.383,-4.237 5.422,-7.062c6.036,-8.11 9.066,-13.714 9.066,-16.812c0,-2.118 -0.979,-3.189 -2.916,-3.189Z" style="fill:#d3b67f;fill-rule:nonzero;"/></g></g><g><g><path d="M326.21,191.312c-8.201,11.299 -14.249,16.949 -18.133,16.949c-1.89,-0 -3.439,-0.684 -4.647,-2.05c-1.184,-1.39 -1.777,-3.201 -1.777,-5.422c0,-1.15 0.057,-2.187 0.183,-3.098c0.148,-0.934 0.637,-2.233 1.458,-3.873c0.842,-1.663 2.141,-3.963 3.872,-6.879c1.754,-2.939 4.237,-7.085 7.426,-12.438c1.515,-2.552 3.19,-5.342 5.012,-8.383c1.822,-3.03 3.611,-6.082 5.376,-9.158c1.788,-3.064 3.508,-6.014 5.148,-8.838c1.641,-2.848 3.076,-5.388 4.329,-7.609c0.729,0.182 1.298,0.319 1.731,0.41c0.456,0.068 1.025,0.091 1.731,0.091c1.003,0 1.788,-0.023 2.369,-0.091c0.57,-0.091 1.299,-0.319 2.187,-0.683c-6.048,10.148 -11.162,18.679 -15.354,25.604c-4.168,6.926 -7.585,12.666 -10.251,17.222c-2.676,4.533 -4.761,8.087 -6.241,10.661c-1.458,2.586 -2.529,4.579 -3.189,5.969c-0.672,1.366 -1.071,2.369 -1.185,3.007c-0.125,0.615 -0.182,1.173 -0.182,1.685c-0,1.982 0.831,2.962 2.506,2.962c3.644,-0 10.319,-6.891 20.046,-20.685c0.148,-0.455 0.41,-0.683 0.774,-0.683c0.183,-0 0.274,0.137 0.274,0.41c-0,0.273 -0.228,0.626 -0.684,1.048l-2.779,3.872Z" style="fill:#d3b67f;fill-rule:nonzero;"/></g></g><g><g><path d="M358.634,193.044c3.281,-5.126 5.695,-9.215 7.244,-12.256c1.549,-3.03 2.324,-5.171 2.324,-6.424c-0,-1.298 -0.49,-1.959 -1.458,-1.959c-2.13,0 -6.538,4.67 -13.212,13.987c-0.524,0.638 -0.866,0.957 -1.048,0.957c-0.183,-0 -0.274,-0.137 -0.274,-0.41c0,-0.091 0.16,-0.376 0.502,-0.866c0.364,-0.478 0.831,-1.116 1.412,-1.913c0.604,-0.821 1.253,-1.698 1.959,-2.643c0.695,-0.934 1.412,-1.845 2.141,-2.734c2.21,-2.847 3.964,-4.783 5.24,-5.786c1.298,-1.025 2.574,-1.549 3.827,-1.549c1.423,0 2.619,0.672 3.599,2.005c0.968,1.344 1.458,2.893 1.458,4.647c-0,2.494 -1.299,6.014 -3.873,10.57c2.21,-3.212 4.169,-5.934 5.878,-8.155c1.697,-2.21 3.234,-3.987 4.601,-5.331c1.367,-1.332 2.608,-2.289 3.736,-2.87c1.116,-0.57 2.21,-0.866 3.28,-0.866c1.754,0 3.235,0.752 4.42,2.233c1.207,1.458 1.822,3.303 1.822,5.513c0,1.526 -0.228,2.904 -0.683,4.145c-0.433,1.253 -1.356,3.03 -2.779,5.331c4.647,-6.401 8.337,-10.866 11.071,-13.395c2.756,-2.551 5.25,-3.827 7.471,-3.827c1.88,0 3.463,0.809 4.739,2.415c1.298,1.583 1.959,3.542 1.959,5.877c-0,1.071 -0.091,2.028 -0.274,2.871c-0.182,0.82 -0.592,1.856 -1.23,3.098c-0.615,1.253 -1.492,2.779 -2.642,4.601c-1.162,1.823 -2.722,4.214 -4.693,7.153c-1.253,1.8 -2.096,3.212 -2.551,4.237c-0.433,1.003 -0.638,1.993 -0.638,2.962c-0,1.799 0.888,2.688 2.688,2.688c1.572,-0 3.702,-1.299 6.378,-3.919c2.666,-2.642 6.151,-6.799 10.434,-12.483l2.004,-2.825l1.185,-1.458c0.182,-0.455 0.41,-0.683 0.683,-0.683c0.239,-0 0.365,0.137 0.365,0.41c-0,0.182 -0.217,0.535 -0.638,1.048l-2.825,3.872c-4.351,5.992 -7.95,10.32 -10.798,12.985c-2.858,2.643 -5.307,3.964 -7.335,3.964c-2.039,-0 -3.713,-0.752 -5.011,-2.233c-1.276,-1.514 -1.914,-3.474 -1.914,-5.877c0,-1.002 0.057,-1.891 0.182,-2.688c0.148,-0.786 0.479,-1.697 1.003,-2.734c0.546,-1.025 1.275,-2.278 2.187,-3.735c0.934,-1.458 2.209,-3.338 3.827,-5.65c2.027,-2.847 3.439,-5.034 4.237,-6.561c0.82,-1.514 1.23,-2.756 1.23,-3.735c-0,-1.755 -0.9,-2.643 -2.688,-2.643c-1.492,0 -3.178,0.683 -5.057,2.05c-1.857,1.367 -3.998,3.486 -6.424,6.333c-2.404,2.859 -5.092,6.515 -8.064,10.98c-2.985,4.442 -6.288,9.75 -9.933,15.946c-0.706,-0.159 -1.298,-0.228 -1.776,-0.228l-3.964,0c-0.615,0 -1.401,0.069 -2.369,0.228l9.203,-14.67c3.28,-5.308 5.604,-9.272 6.971,-11.891c1.389,-2.643 2.095,-4.579 2.095,-5.832c0,-1.936 -0.808,-2.916 -2.414,-2.916c-1.253,0 -2.905,0.911 -4.966,2.734c-2.039,1.822 -4.306,4.328 -6.789,7.517c-2.494,3.189 -5.137,6.948 -7.927,11.253c-2.802,4.317 -5.536,8.919 -8.201,13.805c-0.706,-0.159 -1.321,-0.228 -1.868,-0.228l-4.055,0c-0.581,0 -1.355,0.069 -2.323,0.228l9.339,-14.67Z" style="fill:#d3b67f;fill-rule:nonzero;"/></g></g><g><g><path d="M454.663,191.586c-4.283,5.353 -8.429,9.465 -12.438,12.347c-3.986,2.881 -7.54,4.328 -10.661,4.328c-3.098,-0 -5.684,-1.082 -7.745,-3.235c-2.039,-2.187 -3.053,-4.932 -3.053,-8.246c0,-7.711 5.467,-14.591 16.402,-20.639c5.797,-3.121 10.479,-4.693 14.032,-4.693c1.515,0 2.825,0.479 3.919,1.413c1.116,0.945 1.685,2.073 1.685,3.371c0,3.132 -2.039,5.786 -6.105,7.973c-4.043,2.164 -10.866,4.226 -20.456,6.196c-1.253,1.948 -2.301,3.953 -3.144,6.014c-0.854,2.039 -1.276,3.77 -1.276,5.194c0,1.674 0.559,3.03 1.686,4.055c1.116,1.036 2.563,1.549 4.328,1.549c3.212,-0 7.062,-1.777 11.527,-5.331c4.488,-3.553 9.067,-8.485 13.714,-14.807c0.603,-0.729 1.048,-1.093 1.321,-1.093c0.182,-0 0.273,0.137 0.273,0.41c0,0.091 -0.41,0.672 -1.23,1.731l-2.779,3.463Zm-23.874,-2.141c3.099,-0.786 6.026,-1.777 8.794,-2.962c2.756,-1.207 5.148,-2.483 7.153,-3.827c2.004,-1.333 3.576,-2.711 4.738,-4.146c1.15,-1.424 1.731,-2.802 1.731,-4.146c0,-1.389 -0.763,-2.096 -2.278,-2.096c-1.162,0 -2.529,0.433 -4.1,1.276c-1.549,0.82 -3.224,1.993 -5.012,3.508c-1.765,1.526 -3.599,3.349 -5.513,5.467c-1.913,2.13 -3.758,4.443 -5.513,6.926Z" style="fill:#d3b67f;fill-rule:nonzero;"/></g></g><g><g><path d="M509.483,140.513c0.877,0.273 1.572,0.456 2.096,0.547c0.546,0.068 1.275,0.091 2.187,0.091c0.603,-0 1.195,-0.012 1.776,-0.046c0.57,-0.057 1.322,-0.114 2.233,-0.182c-5.445,8.543 -10.115,15.969 -14.033,22.279c-3.918,6.287 -7.267,11.686 -10.023,16.174c-2.733,4.499 -4.966,8.223 -6.697,11.162c-1.731,2.916 -3.076,5.285 -4.01,7.107c-0.945,1.823 -1.594,3.258 -1.959,4.283c-0.341,1.036 -0.501,1.857 -0.501,2.46c0,1.982 0.877,2.962 2.643,2.962c0.877,-0 2.027,-0.49 3.462,-1.458c1.424,-1.003 3.007,-2.415 4.739,-4.237c1.731,-1.823 3.61,-3.987 5.649,-6.515c2.062,-2.552 4.157,-5.377 6.287,-8.475c0.183,-0.455 0.41,-0.683 0.684,-0.683c0.273,-0 0.41,0.137 0.41,0.41c-0,0.182 -0.228,0.535 -0.684,1.048l-2.779,3.872c-4.374,6.049 -7.996,10.388 -10.843,13.031c-2.825,2.608 -5.274,3.918 -7.335,3.918c-2.039,-0 -3.679,-0.752 -4.921,-2.233c-1.253,-1.514 -1.868,-3.428 -1.868,-5.74c0,-1.333 0.148,-2.574 0.456,-3.736c0.33,-1.185 0.979,-2.654 1.959,-4.419c-2.13,3.098 -4.032,5.683 -5.695,7.745c-1.64,2.039 -3.132,3.679 -4.465,4.92c-1.344,1.253 -2.54,2.119 -3.599,2.643c-1.071,0.546 -2.13,0.82 -3.189,0.82c-2.313,-0 -4.26,-0.98 -5.832,-2.916c-1.549,-1.97 -2.324,-4.465 -2.324,-7.472c0,-7.198 4.442,-13.691 13.349,-19.5c3.121,-2.027 6.219,-3.69 9.295,-4.966c3.064,-1.298 5.524,-1.959 7.38,-1.959c1.242,0 2.21,0.365 2.916,1.094c0.729,0.706 1.094,1.629 1.094,2.779c-0,1.253 -0.353,2.631 -1.048,4.146l23.19,-38.954Zm-26.288,31.892c-1.948,0 -4.351,1.162 -7.199,3.463c-2.859,2.312 -5.626,5.08 -8.292,8.292c-2.642,3.189 -4.909,6.515 -6.788,9.977c-1.857,3.463 -2.779,6.401 -2.779,8.793c-0,1.344 0.33,2.415 1.002,3.235c0.661,0.786 1.526,1.185 2.597,1.185c1.845,-0 4.157,-1.379 6.925,-4.146c2.756,-2.757 6.401,-7.427 10.934,-13.987c2.392,-3.394 4.124,-6.162 5.194,-8.292c1.06,-2.119 1.595,-3.804 1.595,-5.057c-0,-2.301 -1.071,-3.463 -3.189,-3.463Z" style="fill:#d3b67f;fill-rule:nonzero;"/></g></g><g><g><path d="M505.481,196.279c-2.129,3.371 -3.189,6.082 -3.189,8.109c0,1.982 1.014,2.962 3.053,2.962c2.027,-0 4.692,-1.686 7.973,-5.058c3.303,-3.394 7.449,-8.61 12.438,-15.627c0.182,-0.455 0.41,-0.683 0.683,-0.683c0.239,-0 0.365,0.137 0.365,0.41c-0,0.182 -0.217,0.535 -0.638,1.048l-2.825,3.872c-4.351,6.049 -7.962,10.388 -10.843,13.031c-2.893,2.608 -5.502,3.918 -7.837,3.918c-2.038,-0 -3.758,-0.706 -5.148,-2.096c-1.367,-1.424 -2.05,-3.257 -2.05,-5.513c-0,-1.48 0.296,-3.052 0.911,-4.692c0.638,-1.663 1.845,-3.919 3.645,-6.743l10.114,-17.222c0.729,0.182 1.287,0.308 1.686,0.365c0.387,0.034 0.911,0.045 1.549,0.045c0.877,0 1.652,-0.011 2.324,-0.045c0.66,-0.057 1.526,-0.183 2.596,-0.365l-14.807,24.284Zm17.587,-39.638c0.82,0 1.48,0.274 2.004,0.82c0.547,0.524 0.82,1.185 0.82,2.005c0,1.492 -0.66,2.904 -1.959,4.237c-1.275,1.344 -2.676,2.005 -4.191,2.005c-1.948,-0 -2.916,-0.968 -2.916,-2.916c-0,-1.515 0.661,-2.916 2.005,-4.192c1.332,-1.298 2.745,-1.959 4.237,-1.959Z" style="fill:#d3b67f;fill-rule:nonzero;"/></g></g><g><g><path d="M558.553,171.995c0.729,0.182 1.299,0.308 1.731,0.365c0.456,0.034 1.048,0.045 1.777,0.045c0.786,0 1.481,-0.011 2.096,-0.045c0.638,-0.057 1.435,-0.183 2.415,-0.365l-11.481,19.044c-1.948,3.315 -3.44,6.105 -4.465,8.383c-1.037,2.255 -1.549,3.861 -1.549,4.83c-0,2.073 0.843,3.098 2.551,3.098c0.877,-0 2.028,-0.536 3.463,-1.595c1.423,-1.093 3.052,-2.563 4.875,-4.419c1.822,-1.88 3.735,-4.067 5.74,-6.561c2.005,-2.483 3.975,-5.194 5.923,-8.11c0.182,-0.455 0.41,-0.683 0.683,-0.683c0.274,-0 0.41,0.137 0.41,0.41c0,0.091 -0.341,0.626 -1.002,1.595c-0.672,0.979 -1.503,2.118 -2.506,3.417c-0.979,1.275 -2.027,2.631 -3.143,4.054c-1.094,1.436 -2.039,2.632 -2.825,3.6c-2.859,3.371 -5.194,5.763 -7.016,7.153c-1.823,1.366 -3.543,2.05 -5.149,2.05c-2.038,-0 -3.679,-0.729 -4.92,-2.187c-1.253,-1.458 -1.868,-3.349 -1.868,-5.695c-0,-1.299 0.148,-2.517 0.456,-3.645c0.33,-1.116 0.888,-2.426 1.685,-3.918c-2.221,3.098 -4.134,5.638 -5.74,7.609c-1.618,1.947 -3.076,3.53 -4.374,4.738c-1.276,1.184 -2.438,1.982 -3.463,2.414c-1.002,0.456 -2.038,0.684 -3.098,0.684c-2.312,-0 -4.26,-0.98 -5.831,-2.916c-1.549,-1.97 -2.324,-4.465 -2.324,-7.472c0,-4.009 1.503,-7.927 4.51,-11.754c3.03,-3.827 7.404,-7.29 13.122,-10.388c5.251,-2.848 9.431,-4.283 12.529,-4.283c2.665,0 4.009,1.299 4.009,3.873c0,0.797 -0.182,1.765 -0.547,2.916l3.326,-6.242Zm-6.652,0.41c-1.344,0 -2.904,0.535 -4.692,1.595c-1.766,1.07 -3.588,2.46 -5.467,4.191c-1.857,1.731 -3.725,3.713 -5.604,5.923c-1.857,2.221 -3.497,4.465 -4.921,6.743c-1.435,2.278 -2.585,4.488 -3.462,6.606c-0.889,2.13 -1.322,3.998 -1.322,5.604c0,2.859 1.242,4.283 3.736,4.283c0.877,-0 1.777,-0.251 2.688,-0.729c0.934,-0.479 2.028,-1.333 3.281,-2.552c1.241,-1.207 2.642,-2.745 4.191,-4.601c1.572,-1.88 3.383,-4.237 5.422,-7.062c6.037,-8.11 9.066,-13.714 9.066,-16.812c0,-2.118 -0.979,-3.189 -2.916,-3.189Z" style="fill:#d3b67f;fill-rule:nonzero;"/></g></g><g><g><path d="M21.014,201.926l-0,-20.274l12.301,-0l0,2.369l-9.75,0l0,6.424l9.021,-0l0,2.324l-9.021,-0l0,6.788l10.069,0l-0,2.369l-12.62,0Z" style="fill:#d3b67f;fill-rule:nonzero;"/></g></g><g><g><path d="M45.23,202.291c-1.618,-0 -3.03,-0.274 -4.237,-0.82c-1.185,-0.547 -2.096,-1.299 -2.734,-2.278c-0.638,-1.003 -0.979,-2.165 -1.002,-3.509l2.551,0c0.023,1.31 0.547,2.347 1.549,3.098c1.003,0.729 2.29,1.094 3.873,1.094c1.424,-0 2.551,-0.273 3.371,-0.82c0.843,-0.57 1.276,-1.367 1.276,-2.369c-0,-0.934 -0.41,-1.697 -1.23,-2.278c-0.797,-0.57 -2.096,-1.071 -3.918,-1.504c-2.495,-0.603 -4.329,-1.367 -5.513,-2.278c-1.162,-0.934 -1.731,-2.198 -1.731,-3.781c-0,-1.697 0.649,-3.053 1.959,-4.055c1.298,-1.002 3.064,-1.504 5.285,-1.504c2.278,0 4.066,0.581 5.376,1.732c1.332,1.127 2.016,2.665 2.05,4.601l-2.506,0c-0.034,-1.207 -0.49,-2.164 -1.367,-2.87c-0.888,-0.695 -2.073,-1.048 -3.553,-1.048c-1.435,0 -2.574,0.296 -3.417,0.866c-0.82,0.546 -1.23,1.31 -1.23,2.278c-0,0.854 0.375,1.572 1.139,2.141c0.785,0.547 2.164,1.071 4.146,1.549c2.574,0.638 4.419,1.447 5.512,2.415c1.094,0.945 1.64,2.164 1.64,3.645c0,1.765 -0.672,3.166 -2.004,4.191c-1.31,1.002 -3.076,1.504 -5.285,1.504Z" style="fill:#d3b67f;fill-rule:nonzero;"/></g></g><g><g><path d="M62.11,201.926l-0,-17.859l-6.834,-0l-0,-2.415l16.219,-0l0,2.415l-6.834,-0l0,17.859l-2.551,0Z" style="fill:#d3b67f;fill-rule:nonzero;"/></g></g><g><g><path d="M75.49,201.926l0,-20.274l7.017,-0c2.061,-0 3.872,0.433 5.421,1.276c1.572,0.854 2.791,2.038 3.645,3.553c0.877,1.527 1.321,3.281 1.321,5.285c0,2.005 -0.444,3.77 -1.321,5.285c-0.854,1.526 -2.073,2.722 -3.645,3.599c-1.549,0.855 -3.36,1.276 -5.421,1.276l-7.017,0Zm2.552,-2.415l4.465,0c1.549,0 2.893,-0.318 4.055,-0.956c1.184,-0.661 2.095,-1.572 2.733,-2.734c0.661,-1.15 1.002,-2.506 1.002,-4.055c0,-1.515 -0.341,-2.847 -1.002,-4.009c-0.672,-1.15 -1.594,-2.05 -2.779,-2.688c-1.185,-0.661 -2.574,-1.002 -4.146,-1.002l-4.328,-0l-0,15.444Z" style="fill:#d3b67f;fill-rule:nonzero;"/></g></g><g><g><path d="M601.44,201.926l0,-1.913l8.384,-7.7c0.968,-0.911 1.685,-1.754 2.141,-2.551c0.478,-0.786 0.729,-1.595 0.729,-2.415c-0,-1.15 -0.399,-2.073 -1.185,-2.779c-0.797,-0.695 -1.811,-1.048 -3.052,-1.048c-1.31,-0 -2.369,0.399 -3.189,1.184c-0.798,0.764 -1.208,1.846 -1.231,3.235l-2.369,0c0.023,-1.332 0.331,-2.506 0.911,-3.508c0.57,-1.002 1.344,-1.777 2.324,-2.323c1.002,-0.547 2.164,-0.821 3.508,-0.821c1.299,0 2.46,0.262 3.463,0.775c1.002,0.524 1.788,1.23 2.369,2.141c0.604,0.911 0.911,1.959 0.911,3.144c0,1.162 -0.307,2.312 -0.911,3.462c-0.615,1.128 -1.538,2.267 -2.779,3.417l-5.878,5.331l9.978,0l0,2.369l-14.124,0Z" style="fill:#d3b67f;fill-rule:nonzero;"/></g></g><g><g><path d="M628.079,202.291c-1.709,-0 -3.178,-0.422 -4.42,-1.276c-1.218,-0.843 -2.164,-2.05 -2.824,-3.599c-0.638,-1.572 -0.957,-3.463 -0.957,-5.65c-0,-2.152 0.319,-4.02 0.957,-5.604c0.66,-1.571 1.606,-2.779 2.824,-3.599c1.242,-0.843 2.711,-1.276 4.42,-1.276c1.697,0 3.155,0.433 4.374,1.276c1.207,0.82 2.141,2.028 2.779,3.599c0.66,1.584 1.002,3.452 1.002,5.604c0,2.187 -0.342,4.078 -1.002,5.65c-0.638,1.549 -1.572,2.756 -2.779,3.599c-1.219,0.854 -2.677,1.276 -4.374,1.276Zm-5.695,-10.525c-0,2.495 0.501,4.465 1.503,5.923c1.025,1.435 2.426,2.141 4.192,2.141c1.731,0 3.098,-0.706 4.1,-2.141c1.025,-1.458 1.549,-3.428 1.549,-5.923c0,-2.483 -0.524,-4.442 -1.549,-5.877c-1.002,-1.424 -2.369,-2.141 -4.1,-2.141c-1.766,-0 -3.167,0.717 -4.192,2.141c-1.002,1.435 -1.503,3.394 -1.503,5.877Z" style="fill:#d3b67f;fill-rule:nonzero;"/></g></g><g><g><path d="M640.27,201.926l-0,-1.913l8.383,-7.7c0.968,-0.911 1.685,-1.754 2.141,-2.551c0.478,-0.786 0.729,-1.595 0.729,-2.415c-0,-1.15 -0.399,-2.073 -1.185,-2.779c-0.797,-0.695 -1.811,-1.048 -3.052,-1.048c-1.31,-0 -2.369,0.399 -3.189,1.184c-0.798,0.764 -1.208,1.846 -1.231,3.235l-2.369,0c0.023,-1.332 0.331,-2.506 0.912,-3.508c0.569,-1.002 1.344,-1.777 2.323,-2.323c1.002,-0.547 2.164,-0.821 3.508,-0.821c1.299,0 2.46,0.262 3.463,0.775c1.002,0.524 1.788,1.23 2.369,2.141c0.604,0.911 0.911,1.959 0.911,3.144c0,1.162 -0.307,2.312 -0.911,3.462c-0.615,1.128 -1.538,2.267 -2.779,3.417l-5.878,5.331l9.978,0l0,2.369l-14.123,0Z" style="fill:#d3b67f;fill-rule:nonzero;"/></g></g><g><g><path d="M658.844,201.926l-0,-1.913l8.383,-7.7c0.968,-0.911 1.686,-1.754 2.141,-2.551c0.478,-0.786 0.729,-1.595 0.729,-2.415c0,-1.15 -0.399,-2.073 -1.184,-2.779c-0.798,-0.695 -1.812,-1.048 -3.053,-1.048c-1.31,-0 -2.369,0.399 -3.189,1.184c-0.798,0.764 -1.208,1.846 -1.23,3.235l-2.369,0c0.022,-1.332 0.33,-2.506 0.911,-3.508c0.569,-1.002 1.344,-1.777 2.323,-2.323c1.003,-0.547 2.164,-0.821 3.508,-0.821c1.299,0 2.461,0.262 3.463,0.775c1.002,0.524 1.788,1.23 2.369,2.141c0.604,0.911 0.911,1.959 0.911,3.144c0,1.162 -0.307,2.312 -0.911,3.462c-0.615,1.128 -1.538,2.267 -2.779,3.417l-5.877,5.331l9.977,0l0,2.369l-14.123,0Z" style="fill:#d3b67f;fill-rule:nonzero;"/></g></g></g></g></svg>