<?xml version="1.0" encoding="UTF-8" standalone="no"?><!DOCTYPE svg PUBLIC "-//W3C//DTD SVG 1.1//EN" "http://www.w3.org/Graphics/SVG/1.1/DTD/svg11.dtd"><svg width="100%" height="100%" viewBox="0 0 528 207" version="1.1" xmlns="http://www.w3.org/2000/svg" xmlns:xlink="http://www.w3.org/1999/xlink" xml:space="preserve" xmlns:serif="http://www.serif.com/" style="fill-rule:evenodd;clip-rule:evenodd;stroke-linejoin:round;stroke-miterlimit:2;"><g id="Vrstva-1" serif:id="Vrstva 1"><path d="M137.335,87.09l17.22,-6.611l0,72.641c-0.04,2.449 0.106,4.897 0.437,7.323c0.218,1.481 0.618,2.93 1.188,4.314c0.314,0.78 0.817,1.47 1.465,2.006c0.339,0.238 0.732,0.388 1.144,0.437l-0,1.66l-21.298,0l-0,-1.66c0.455,-0.026 0.894,-0.177 1.269,-0.437c0.645,-0.521 1.125,-1.218 1.384,-2.006c0.545,-1.396 0.957,-2.84 1.229,-4.314c0.414,-2.418 0.599,-4.87 0.552,-7.323l-0,-56.681c-0.502,-3.297 -1.187,-5.433 -2.057,-6.41c-0.852,-0.973 -1.504,-1.465 -2.006,-1.465l-0.527,-1.474Z" style="fill:#d3b67f;fill-rule:nonzero;"/><path d="M252.617,146.865l-8.432,20.565l-0.752,1.465l-79.573,0l-0,-1.66c0.949,-0.068 1.864,-0.382 2.653,-0.913c1.073,-0.633 2.105,-1.333 3.09,-2.097c0.976,-0.728 1.901,-1.522 2.769,-2.377c0.626,-0.606 1.209,-1.255 1.745,-1.941l0.196,-0.196l52.969,-69.476c1.71,-2.217 2.708,-4.118 3.009,-5.698c0.301,-1.58 -0.376,-2.378 -2.061,-2.378l-23.315,0c-3.037,0.023 -6.049,0.559 -8.908,1.585c-3.024,1.047 -5.892,2.498 -8.527,4.314c-2.712,1.838 -5.173,4.019 -7.323,6.49c-2.131,2.422 -3.862,5.169 -5.127,8.136l-1.82,0l8.632,-20.741l0.552,-1.464l72.23,-0l-0,1.66c-0.926,0.062 -1.816,0.378 -2.574,0.913c-0.978,0.612 -2.006,1.324 -3.044,2.137c-1.039,0.812 -1.982,1.585 -2.854,2.372c-0.653,0.588 -1.262,1.224 -1.821,1.901l-0,0.201l-53.169,69.511c-1.721,2.197 -2.729,4.078 -3.05,5.663c-0.321,1.585 0.476,2.378 2.297,2.378l30.643,-0c2.968,-0.027 5.911,-0.55 8.708,-1.545c3.006,-1.038 5.871,-2.448 8.527,-4.199c2.718,-1.813 5.181,-3.983 7.323,-6.45c2.174,-2.44 3.974,-5.188 5.342,-8.156l1.665,-0Z" style="fill:#d3b67f;fill-rule:nonzero;"/><path d="M338.415,168.875l-16.868,0l-0,-47.306c-0.782,5.067 -1.825,10.09 -3.125,15.048c-1.085,4.133 -2.502,8.17 -4.239,12.074c-1.224,2.612 -2.625,5.137 -4.193,7.559c-1.599,2.448 -3.487,4.695 -5.623,6.691c-2.062,1.957 -4.404,3.596 -6.947,4.866c-2.594,1.235 -5.438,1.858 -8.312,1.82c-5.016,0 -9.08,-1.043 -12.193,-3.13c-3.086,-2.04 -5.616,-4.815 -7.364,-8.075c-1.837,-3.491 -3.081,-7.262 -3.682,-11.161c-0.663,-4.137 -0.998,-8.32 -1.003,-12.51l0,-38.477c0.047,-2.453 -0.139,-4.905 -0.557,-7.323c-0.234,-1.453 -0.631,-2.875 -1.183,-4.239c-0.293,-0.772 -0.77,-1.461 -1.39,-2.006c-0.295,-0.284 -0.666,-0.477 -1.068,-0.557l-0,-1.66l17.054,-0l0,54.272c0,2.218 0.116,4.891 0.356,7.996c0.234,3.102 0.752,6.176 1.545,9.184c0.741,2.879 1.915,5.629 3.481,8.156c2.819,4.635 8.536,6.696 13.664,4.926c2.469,-0.879 4.738,-2.243 6.671,-4.013c2.048,-1.864 3.868,-3.964 5.422,-6.255c1.45,-2.086 2.733,-4.283 3.837,-6.571c2.696,-5.879 4.834,-13.068 6.416,-21.568c1.582,-8.501 2.386,-18.608 2.413,-30.322c0.048,-2.453 -0.137,-4.905 -0.552,-7.323c-0.258,-1.453 -0.67,-2.874 -1.229,-4.239c-0.291,-0.771 -0.766,-1.46 -1.384,-2.006c-0.297,-0.282 -0.668,-0.475 -1.069,-0.557l0,-1.66l16.864,-0l-0,72.611c-0.041,2.449 0.105,4.897 0.436,7.323c0.219,1.481 0.618,2.93 1.189,4.314c0.314,0.79 0.834,1.483 1.505,2.006c0.329,0.233 0.709,0.382 1.108,0.437l0.02,1.675Z" style="fill:#d3b67f;fill-rule:nonzero;"/><path d="M423.391,168.875l-16.904,0l0,-52.808c0,-3.297 -0.157,-6.966 -0.471,-11.005c-0.268,-3.868 -1.026,-7.685 -2.258,-11.361c-1.11,-3.367 -3.027,-6.411 -5.582,-8.868c-2.512,-2.385 -5.969,-3.577 -10.373,-3.577c-4.415,0 -8.232,0.652 -11.482,1.936c-2.822,1.036 -5.446,2.549 -7.755,4.475c-1.953,1.705 -3.247,3.414 -3.882,5.126c-0.635,1.712 -0.503,3.058 0.396,4.038c0.647,0.714 1.507,1.2 2.453,1.384c1.159,0.301 2.468,0.557 3.923,0.793c1.454,0.235 3.009,0.501 4.669,0.752c1.616,0.229 3.198,0.655 4.71,1.269c3.912,1.483 7.272,4.138 9.621,7.599c2.416,3.535 4.136,7.498 5.066,11.677c0.977,4.322 1.336,8.76 1.069,13.182c-0.148,4.09 -1.005,8.123 -2.534,11.918c-2.629,6.825 -6.931,12.881 -12.509,17.611c-5.491,4.652 -11.464,6.856 -17.917,6.611c-6.127,-0.264 -11.087,-1.952 -14.883,-5.066c-3.692,-2.981 -6.409,-6.999 -7.8,-11.536c-1.404,-4.592 -1.55,-9.539 -0.436,-14.843c1.154,-5.44 3.558,-10.537 7.022,-14.887c3.612,-4.591 8.559,-8.47 14.843,-11.637c6.283,-3.167 13.967,-4.941 23.053,-5.322c0.662,-0.045 0.888,-0.045 1.374,-0.065c-1.941,-1.663 -4.144,-2.992 -6.52,-3.933c-2.298,-0.893 -4.712,-1.452 -7.168,-1.66c-2.407,-0.233 -4.828,-0.287 -7.243,-0.161c-2.247,0.111 -4.264,0.276 -6.06,0.502c-1.795,0.226 -2.889,0.426 -3.36,0.552c-0.376,-1.821 0.135,-3.978 1.54,-6.491c1.634,-2.747 3.754,-5.176 6.255,-7.168c3.019,-2.421 6.405,-4.345 10.031,-5.698c4.321,-1.587 8.896,-2.366 13.498,-2.297c5.859,-0 10.808,0.925 14.848,2.774c3.813,1.652 7.148,4.24 9.696,7.524c2.555,3.387 4.339,7.292 5.226,11.441c1.082,4.727 1.614,9.562 1.585,14.411l0,37.053c-0.043,2.449 0.103,4.897 0.437,7.323c0.22,1.48 0.617,2.929 1.183,4.314c0.317,0.778 0.82,1.467 1.465,2.006c0.341,0.239 0.736,0.389 1.149,0.437l0.025,1.675Zm-35.388,-61.24c-4.697,-0.028 -9.375,0.599 -13.899,1.861c-4.125,1.114 -7.987,3.038 -11.361,5.658c-3.268,2.62 -5.895,5.952 -7.68,9.741c-1.899,3.906 -2.849,8.484 -2.849,13.734c0.003,2.595 0.282,5.183 0.833,7.719c0.529,2.508 1.45,4.917 2.729,7.138c1.268,2.176 2.918,4.106 4.87,5.698c2.083,1.63 4.553,2.695 7.168,3.09c2.726,0.624 5.57,0.5 8.231,-0.356c2.583,-0.843 5.007,-2.115 7.168,-3.762c2.227,-1.676 4.177,-3.692 5.778,-5.974c1.6,-2.209 2.929,-4.602 3.958,-7.128c1.106,-3.044 1.863,-6.205 2.257,-9.42c0.446,-3.348 0.487,-6.739 0.12,-10.097c-0.356,-3.303 -1.17,-6.541 -2.417,-9.621c-1.18,-3.005 -2.837,-5.802 -4.906,-8.281Z" style="fill:#d3b67f;fill-rule:nonzero;"/><path d="M448.691,168.875l-21.297,0l-0,-1.66c0.4,-0.049 0.782,-0.199 1.108,-0.437c0.643,-0.523 1.124,-1.219 1.384,-2.006c0.515,-1.403 0.913,-2.845 1.189,-4.314c0.414,-2.418 0.599,-4.87 0.552,-7.323l0,-100.881c-0.502,-3.17 -1.149,-5.237 -1.941,-6.22c-0.793,-0.983 -1.425,-1.465 -1.896,-1.465l-0.557,-1.66l17.22,-6.415l-0,116.626c-0.041,2.449 0.105,4.897 0.436,7.323c0.219,1.481 0.618,2.93 1.189,4.314c0.313,0.78 0.817,1.47 1.465,2.006c0.34,0.239 0.735,0.389 1.148,0.437l0,1.675Z" style="fill:#d3b67f;fill-rule:nonzero;"/><path d="M453.276,87.09l17.22,-6.611l-0,72.641c-0.041,2.449 0.105,4.897 0.436,7.323c0.22,1.48 0.617,2.929 1.184,4.314c0.316,0.78 0.821,1.469 1.47,2.006c0.339,0.238 0.732,0.388 1.143,0.437l0,1.66l-21.313,0l0,-1.66c0.455,-0.026 0.895,-0.177 1.269,-0.437c0.645,-0.521 1.126,-1.218 1.385,-2.006c0.545,-1.396 0.956,-2.84 1.229,-4.314c0.413,-2.418 0.598,-4.87 0.551,-7.323l0,-56.681c-0.501,-3.297 -1.187,-5.433 -2.056,-6.41c-0.853,-0.973 -1.505,-1.465 -1.981,-1.465l-0.537,-1.474Z" style="fill:#d3b67f;fill-rule:nonzero;"/><path d="M146.962,54.645l7.072,7.072c0.365,0.365 0.365,0.956 0,1.32l-7.072,7.072c-0.364,0.364 -0.955,0.364 -1.319,0l-7.073,-7.072c-0.364,-0.364 -0.364,-0.955 0,-1.32l7.073,-7.072c0.364,-0.364 0.955,-0.364 1.319,0Z" style="fill:#d3b67f;"/><path d="M462.998,54.673l7.072,7.072c0.364,0.365 0.364,0.956 -0,1.32l-7.072,7.072c-0.364,0.364 -0.956,0.364 -1.32,0l-7.072,-7.072c-0.364,-0.364 -0.364,-0.955 -0,-1.32l7.072,-7.072c0.364,-0.364 0.956,-0.364 1.32,0Z" style="fill:#d3b67f;"/><path d="M131.241,64.473c-1.214,-3.838 -3.099,-7.43 -5.568,-10.609c-5.035,-6.493 -11.887,-11.347 -19.682,-13.944c-3.941,-1.286 -8.05,-1.984 -12.194,-2.072c-4.168,-0.111 -8.328,0.438 -12.324,1.625c-7.886,2.353 -19.407,7.91 -29.534,22.542c-1.726,-4.561 -2.662,-7.87 -2.809,-9.927c-0.158,-2.829 0.461,-4.245 1.855,-4.248l0,-2.313l-30.171,0l0,2.313c2.052,-0 4.384,2.177 6.968,6.521c2.735,4.566 5.194,9.293 7.363,14.155l42.134,100.123l19.507,0l-2.774,-6.385c-1.254,-2.558 0.086,-5.252 0.567,-6.084l-0.918,1.83c3.607,-6.641 7.228,-13.272 10.78,-19.943c3.551,-6.671 7.062,-13.363 10.533,-20.064l5.237,-10.032c1.725,-3.356 3.556,-6.666 5.186,-10.097c1.654,-3.405 3.085,-6.913 4.284,-10.503c1.242,-3.575 2.083,-7.276 2.508,-11.036c0.53,-3.973 0.207,-8.014 -0.948,-11.852Zm-0.607,9.194c-0.456,7.524 -3.28,14.742 -6.596,21.569c-1.66,3.431 -3.571,6.741 -5.462,10.107l-6.085,10.152c-7.448,13.373 -14.651,24.809 -22.01,38.222l-36.335,-86.195c-0.372,-0.892 -0.953,-3.235 -1.285,-4.057c4.685,-6.215 11.733,-16.684 24.228,-20.987c7.223,-2.553 13.733,-4.269 24.578,-2.388c7.629,1.319 16.267,7.173 21.308,12.896c2.515,2.851 4.514,6.119 5.908,9.656c1.368,3.507 1.965,7.267 1.751,11.025Z" style="fill:#d3b67f;fill-rule:nonzero;"/></g></svg>